<svg xmlns="http://www.w3.org/2000/svg" viewBox="0 0 948.58 544.26" fill="none" stroke="#c5d0d8" stroke-width="1.707" stroke-linecap="round" stroke-linejoin="round">
<line x1="859.76" y1="203.95" x2="81.96" y2="203.95"/>
<line x1="860.32" y1="472.99" x2="88.13" y2="472.99"/>
<line x1="88.13" y1="521.91" x2="860.32" y2="521.91"/>
<line x1="860.32" y1="480.33" x2="88.13" y2="480.33"/>
<line x1="88.13" y1="475.98" x2="860.32" y2="475.98"/>
<line x1="860.32" y1="477.13" x2="88.13" y2="477.13"/>
<line x1="860.32" y1="528.95" x2="88.13" y2="528.95"/>
<line x1="851.13" y1="0.00" x2="89.5" y2="0.00"/>
<line x1="850.58" y1="203.55" x2="97.32" y2="203.55"/>
<line x1="109.95" y1="457.61" x2="838.5" y2="457.61"/>
<line x1="109.95" y1="279.38" x2="838.5" y2="279.38"/>
<line x1="109.95" y1="287.43" x2="838.5" y2="287.43"/>
<line x1="109.95" y1="225.33" x2="838.5" y2="225.33"/>
<line x1="109.95" y1="233.37" x2="838.5" y2="233.37"/>
<line x1="114.06" y1="169.32" x2="835.17" y2="169.32"/>
<line x1="114.06" y1="188.16" x2="835.17" y2="188.16"/>
<line x1="80.32" y1="272.91" x2="80.32" y2="9.19"/>
<line x1="860.32" y1="222.23" x2="860.32" y2="9.19"/>
<line x1="111.97" y1="457.07" x2="301.48" y2="457.07"/>
<line x1="99.61" y1="289.09" x2="99.61" y2="472.99"/>
<line x1="847.97" y1="289.09" x2="847.97" y2="472.99"/>
<line x1="860.32" y1="472.99" x2="860.32" y2="291.23"/>
<line x1="88.13" y1="472.99" x2="88.13" y2="291.23"/>
<line x1="109.95" y1="457.61" x2="109.95" y2="287.43"/>
<line x1="838.5" y1="457.61" x2="838.5" y2="287.43"/>
<line x1="824.87" y1="287.43" x2="824.87" y2="446.95"/>
<line x1="830.66" y1="446.95" x2="830.66" y2="287.43"/>
<line x1="589.07" y1="444.98" x2="589.07" y2="287.43"/>
<line x1="810.05" y1="287.43" x2="810.05" y2="444.98"/>
<line x1="594.86" y1="287.43" x2="594.86" y2="444.98"/>
<line x1="354.82" y1="287.43" x2="354.82" y2="444.98"/>
<line x1="363.86" y1="287.43" x2="363.86" y2="444.98"/>
<line x1="122.84" y1="444.05" x2="122.82" y2="287.43"/>
<line x1="117.04" y1="287.43" x2="117.04" y2="444.05"/>
<line x1="140.77" y1="287.43" x2="140.77" y2="444.05"/>
<line x1="113.56" y1="444.05" x2="113.56" y2="287.43"/>
<line x1="142.49" y1="439.35" x2="142.49" y2="287.43"/>
<line x1="646.94" y1="439.21" x2="646.94" y2="287.43"/>
<line x1="607.88" y1="287.43" x2="607.88" y2="439.02"/>
<line x1="261.7" y1="287.43" x2="261.68" y2="438.72"/>
<line x1="224.09" y1="438.20" x2="224.09" y2="287.43"/>
<line x1="180.69" y1="438.16" x2="180.69" y2="287.43"/>
<line x1="304.55" y1="438.15" x2="304.55" y2="287.43"/>
<line x1="458.61" y1="437.93" x2="458.61" y2="287.43"/>
<line x1="184.17" y1="287.43" x2="184.17" y2="437.92"/>
<line x1="378.69" y1="437.45" x2="378.69" y2="287.43"/>
<line x1="414.13" y1="437.38" x2="414.13" y2="287.43"/>
<line x1="299.9" y1="287.43" x2="299.9" y2="436.79"/>
<line x1="339.99" y1="287.43" x2="339.99" y2="436.68"/>
<line x1="185.89" y1="436.25" x2="185.89" y2="287.43"/>
<line x1="145.97" y1="287.43" x2="145.95" y2="435.99"/>
<line x1="452.83" y1="287.43" x2="452.83" y2="435.91"/>
<line x1="218.3" y1="287.43" x2="218.3" y2="435.64"/>
<line x1="258.22" y1="435.36" x2="258.22" y2="287.43"/>
<line x1="267.49" y1="435.10" x2="267.49" y2="287.43"/>
<line x1="771.35" y1="292.68" x2="771.35" y2="436.45"/>
<line x1="171.42" y1="429.16" x2="171.42" y2="287.43"/>
<line x1="467.66" y1="429.14" x2="467.66" y2="287.43"/>
<line x1="676.59" y1="429.08" x2="676.59" y2="287.43"/>
<line x1="290.63" y1="427.79" x2="290.63" y2="287.43"/>
<line x1="428.96" y1="287.43" x2="428.96" y2="427.68"/>
<line x1="780.39" y1="287.43" x2="780.39" y2="427.66"/>
<line x1="169.7" y1="287.43" x2="169.7" y2="427.49"/>
<line x1="195.16" y1="427.24" x2="195.16" y2="287.43"/>
<line x1="209.62" y1="427.21" x2="209.62" y2="287.43"/>
<line x1="795.22" y1="287.43" x2="795.22" y2="427.14"/>
<line x1="443.79" y1="287.43" x2="443.79" y2="427.13"/>
<line x1="155.24" y1="287.43" x2="155.24" y2="426.96"/>
<line x1="276.17" y1="287.43" x2="276.17" y2="426.66"/>
<line x1="661.77" y1="287.43" x2="661.77" y2="425.73"/>
<line x1="482.48" y1="287.43" x2="482.48" y2="425.66"/>
<line x1="156.96" y1="425.30" x2="156.96" y2="287.43"/>
<line x1="632.11" y1="287.43" x2="632.11" y2="424.92"/>
<line x1="247.23" y1="287.43" x2="247.23" y2="424.69"/>
<line x1="287.15" y1="424.41" x2="287.15" y2="287.43"/>
<line x1="623.07" y1="287.43" x2="623.06" y2="424.27"/>
<line x1="238.55" y1="424.14" x2="238.55" y2="287.43"/>
<line x1="166.22" y1="424.10" x2="166.22" y2="287.43"/>
<line x1="198.64" y1="287.43" x2="198.64" y2="423.86"/>
<line x1="319.38" y1="423.75" x2="319.38" y2="287.43"/>
<line x1="473.44" y1="287.43" x2="473.44" y2="423.52"/>
<line x1="393.52" y1="287.43" x2="393.52" y2="423.05"/>
<line x1="399.3" y1="422.97" x2="399.3" y2="287.43"/>
<line x1="497.31" y1="303.73" x2="497.31" y2="439.23"/>
<line x1="536.73" y1="303.74" x2="536.76" y2="439.21"/>
<line x1="285.43" y1="287.43" x2="285.43" y2="422.74"/>
<line x1="726.86" y1="303.74" x2="726.86" y2="438.85"/>
<line x1="325.16" y1="287.43" x2="325.16" y2="422.27"/>
<line x1="200.35" y1="422.19" x2="200.35" y2="287.43"/>
<line x1="786.18" y1="287.43" x2="786.18" y2="422.04"/>
<line x1="160.44" y1="421.91" x2="160.44" y2="287.43"/>
<line x1="765.56" y1="303.03" x2="765.55" y2="437.38"/>
<line x1="203.84" y1="287.43" x2="203.82" y2="421.57"/>
<line x1="438.0" y1="421.51" x2="438.0" y2="287.43"/>
<line x1="243.75" y1="421.30" x2="243.75" y2="287.43"/>
<line x1="281.97" y1="421.02" x2="281.95" y2="287.43"/>
<line x1="242.04" y1="287.43" x2="242.04" y2="420.76"/>
<line x1="477.15" y1="287.43" x2="477.15" y2="420.48"/>
<line x1="242.9" y1="287.43" x2="242.9" y2="420.48"/>
<line x1="667.61" y1="420.39" x2="667.64" y2="287.43"/>
<line x1="436.81" y1="420.39" x2="436.84" y2="287.43"/>
<line x1="788.21" y1="287.43" x2="788.23" y2="420.39"/>
<line x1="667.55" y1="420.37" x2="667.55" y2="287.43"/>
<line x1="476.84" y1="287.43" x2="476.85" y2="420.36"/>
<line x1="242.59" y1="287.43" x2="242.6" y2="420.36"/>
<line x1="540.35" y1="303.74" x2="540.35" y2="436.64"/>
<line x1="691.42" y1="303.61" x2="691.42" y2="435.98"/>
<line x1="579.67" y1="287.43" x2="579.67" y2="414.65"/>
<line x1="604.26" y1="414.46" x2="604.26" y2="287.43"/>
<line x1="131.5" y1="287.43" x2="131.5" y2="414.06"/>
<line x1="576.05" y1="287.43" x2="576.05" y2="412.81"/>
<line x1="787.97" y1="412.69" x2="788.0" y2="287.43"/>
<line x1="788.3" y1="412.69" x2="788.33" y2="287.43"/>
<line x1="436.88" y1="412.69" x2="436.91" y2="287.43"/>
<line x1="436.52" y1="287.43" x2="436.55" y2="412.69"/>
<line x1="436.55" y1="412.69" x2="436.58" y2="287.43"/>
<line x1="477.09" y1="412.69" x2="477.12" y2="287.43"/>
<line x1="476.76" y1="412.69" x2="476.79" y2="287.43"/>
<line x1="476.73" y1="287.43" x2="476.76" y2="412.69"/>
<line x1="788.13" y1="287.43" x2="788.15" y2="412.69"/>
<line x1="787.87" y1="412.69" x2="787.89" y2="287.43"/>
<line x1="436.45" y1="412.69" x2="436.47" y2="287.43"/>
<line x1="436.73" y1="412.69" x2="436.75" y2="287.43"/>
<line x1="436.71" y1="287.43" x2="436.73" y2="412.69"/>
<line x1="477.02" y1="412.69" x2="477.04" y2="287.43"/>
<line x1="477.0" y1="287.43" x2="477.02" y2="412.69"/>
<line x1="787.86" y1="287.43" x2="787.87" y2="412.69"/>
<line x1="788.05" y1="287.43" x2="788.06" y2="412.69"/>
<line x1="436.44" y1="287.43" x2="436.45" y2="412.69"/>
<line x1="436.63" y1="287.43" x2="436.64" y2="412.69"/>
<line x1="436.87" y1="287.43" x2="436.88" y2="412.69"/>
<line x1="477.08" y1="287.43" x2="477.09" y2="412.69"/>
<line x1="126.31" y1="287.43" x2="126.31" y2="412.69"/>
<line x1="128.02" y1="412.69" x2="128.02" y2="287.43"/>
<line x1="823.57" y1="412.69" x2="823.57" y2="287.43"/>
<line x1="788.3" y1="287.43" x2="788.3" y2="412.69"/>
<line x1="787.97" y1="412.69" x2="787.97" y2="287.43"/>
<line x1="788.37" y1="287.43" x2="788.37" y2="412.69"/>
<line x1="476.57" y1="287.43" x2="476.57" y2="412.69"/>
<line x1="821.92" y1="287.43" x2="821.92" y2="412.69"/>
<line x1="137.29" y1="412.52" x2="137.29" y2="287.43"/>
<line x1="598.48" y1="287.43" x2="598.48" y2="412.34"/>
<line x1="756.52" y1="428.60" x2="756.52" y2="303.74"/>
<line x1="585.46" y1="287.43" x2="585.46" y2="412.19"/>
<line x1="349.03" y1="287.43" x2="349.03" y2="412.15"/>
<line x1="815.83" y1="412.11" x2="815.83" y2="287.43"/>
<line x1="369.65" y1="287.43" x2="369.65" y2="411.99"/>
<line x1="549.75" y1="303.74" x2="549.75" y2="427.51"/>
<line x1="741.69" y1="303.74" x2="741.69" y2="426.20"/>
<line x1="512.14" y1="303.74" x2="512.14" y2="424.99"/>
<line x1="521.54" y1="424.55" x2="521.54" y2="303.74"/>
<line x1="712.04" y1="303.74" x2="712.04" y2="424.45"/>
<line x1="750.73" y1="303.74" x2="750.73" y2="422.98"/>
<line x1="706.25" y1="303.74" x2="706.25" y2="421.57"/>
<line x1="517.93" y1="421.03" x2="517.93" y2="303.74"/>
<line x1="747.65" y1="303.74" x2="747.66" y2="420.41"/>
<line x1="555.54" y1="303.74" x2="555.54" y2="414.65"/>
<line x1="557.41" y1="303.74" x2="557.43" y2="413.41"/>
<line x1="559.15" y1="303.74" x2="559.15" y2="412.81"/>
<line x1="564.94" y1="412.59" x2="564.94" y2="303.74"/>
<line x1="242.5" y1="369.14" x2="242.54" y2="287.43"/>
<line x1="627.13" y1="369.14" x2="627.17" y2="287.43"/>
<line x1="627.47" y1="369.14" x2="627.51" y2="287.43"/>
<line x1="242.75" y1="287.43" x2="242.78" y2="369.14"/>
<line x1="667.68" y1="287.43" x2="667.7" y2="369.14"/>
<line x1="242.85" y1="369.14" x2="242.87" y2="287.43"/>
<line x1="242.48" y1="287.43" x2="242.5" y2="369.14"/>
<line x1="627.03" y1="287.43" x2="627.05" y2="369.14"/>
<line x1="627.3" y1="287.43" x2="627.32" y2="369.14"/>
<line x1="627.32" y1="369.14" x2="627.34" y2="287.43"/>
<line x1="242.78" y1="369.14" x2="242.8" y2="287.43"/>
<line x1="667.7" y1="369.14" x2="667.71" y2="287.43"/>
<line x1="627.39" y1="287.43" x2="627.4" y2="369.14"/>
<line x1="242.84" y1="287.43" x2="242.85" y2="369.14"/>
<line x1="627.25" y1="369.14" x2="627.26" y2="287.43"/>
<line x1="627.12" y1="287.43" x2="627.13" y2="369.14"/>
<line x1="627.05" y1="369.14" x2="627.06" y2="287.43"/>
<line x1="242.32" y1="287.43" x2="242.32" y2="369.14"/>
<line x1="627.47" y1="287.43" x2="627.47" y2="369.14"/>
<line x1="627.54" y1="369.14" x2="627.54" y2="287.43"/>
<line x1="362.6" y1="287.43" x2="362.6" y2="369.14"/>
<line x1="356.87" y1="287.43" x2="356.87" y2="369.14"/>
<line x1="437.85" y1="85.86" x2="506.66" y2="85.86"/>
<line x1="506.61" y1="83.88" x2="437.9" y2="83.88"/>
<line x1="65.68" y1="289.28" x2="0.0" y2="292.47"/>
<line x1="882.89" y1="224.28" x2="948.58" y2="223.73"/>
<line x1="65.68" y1="278.33" x2="0.0" y2="277.78"/>
<line x1="557.5" y1="369.14" x2="557.53" y2="303.74"/>
<line x1="747.93" y1="303.74" x2="747.95" y2="369.14"/>
<line x1="557.06" y1="303.74" x2="557.08" y2="369.14"/>
<line x1="557.17" y1="369.14" x2="557.19" y2="303.74"/>
<line x1="747.95" y1="369.14" x2="747.96" y2="303.74"/>
<line x1="747.75" y1="369.14" x2="747.74" y2="303.74"/>
<line x1="748.11" y1="369.14" x2="748.12" y2="303.74"/>
<line x1="748.04" y1="369.14" x2="748.05" y2="303.74"/>
<line x1="557.33" y1="303.74" x2="557.34" y2="369.14"/>
<line x1="557.49" y1="303.74" x2="557.5" y2="369.14"/>
<line x1="557.25" y1="303.74" x2="557.26" y2="369.14"/>
<line x1="748.16" y1="303.74" x2="748.16" y2="369.14"/>
<line x1="747.85" y1="303.74" x2="747.85" y2="369.14"/>
<line x1="557.56" y1="303.74" x2="557.56" y2="369.14"/>
<line x1="868.26" y1="286.65" x2="868.26" y2="232.59"/>
<line x1="899.49" y1="236.03" x2="948.58" y2="238.42"/>
<line x1="242.58" y1="233.37" x2="242.59" y2="279.38"/>
<line x1="117.04" y1="233.37" x2="117.04" y2="279.38"/>
<line x1="126.31" y1="233.37" x2="126.31" y2="279.38"/>
<line x1="122.82" y1="279.38" x2="122.82" y2="233.37"/>
<line x1="267.49" y1="279.38" x2="267.49" y2="233.37"/>
<line x1="261.7" y1="233.37" x2="261.7" y2="279.38"/>
<line x1="299.9" y1="233.37" x2="299.9" y2="279.38"/>
<line x1="290.63" y1="279.38" x2="290.63" y2="233.37"/>
<line x1="287.15" y1="279.38" x2="287.15" y2="233.37"/>
<line x1="145.97" y1="233.37" x2="145.97" y2="279.38"/>
<line x1="142.49" y1="279.38" x2="142.49" y2="233.37"/>
<line x1="285.43" y1="233.37" x2="285.43" y2="279.38"/>
<line x1="258.22" y1="279.38" x2="258.22" y2="233.37"/>
<line x1="247.23" y1="233.37" x2="247.23" y2="279.38"/>
<line x1="137.29" y1="279.38" x2="137.29" y2="233.37"/>
<line x1="131.5" y1="233.37" x2="131.5" y2="279.38"/>
<line x1="276.17" y1="233.37" x2="276.17" y2="279.38"/>
<line x1="128.02" y1="279.38" x2="128.02" y2="233.37"/>
<line x1="140.77" y1="233.37" x2="140.77" y2="279.38"/>
<line x1="243.75" y1="279.38" x2="243.75" y2="233.37"/>
<line x1="281.95" y1="279.38" x2="281.95" y2="233.37"/>
<line x1="113.56" y1="279.38" x2="113.56" y2="233.37"/>
<line x1="242.04" y1="233.37" x2="242.04" y2="279.38"/>
<line x1="109.95" y1="279.38" x2="109.95" y2="233.37"/>
<line x1="838.5" y1="279.38" x2="838.5" y2="233.37"/>
<line x1="667.69" y1="412.69" x2="667.7" y2="369.14"/>
<line x1="747.85" y1="369.14" x2="747.86" y2="412.69"/>
<line x1="747.76" y1="412.69" x2="747.75" y2="369.14"/>
<line x1="748.03" y1="412.69" x2="748.04" y2="369.14"/>
<line x1="747.94" y1="412.69" x2="747.95" y2="369.14"/>
<line x1="627.47" y1="369.14" x2="627.48" y2="412.69"/>
<line x1="627.4" y1="369.14" x2="627.41" y2="412.69"/>
<line x1="627.14" y1="412.69" x2="627.13" y2="369.14"/>
<line x1="627.24" y1="412.69" x2="627.25" y2="369.14"/>
<line x1="557.34" y1="369.14" x2="557.35" y2="412.69"/>
<line x1="557.08" y1="369.14" x2="557.07" y2="412.69"/>
<line x1="242.85" y1="369.14" x2="242.84" y2="412.69"/>
<line x1="242.77" y1="412.69" x2="242.78" y2="369.14"/>
<line x1="242.51" y1="412.69" x2="242.5" y2="369.14"/>
<line x1="748.1" y1="412.69" x2="748.11" y2="369.14"/>
<line x1="748.16" y1="369.14" x2="748.16" y2="412.69"/>
<line x1="627.05" y1="369.14" x2="627.05" y2="412.69"/>
<line x1="627.32" y1="369.14" x2="627.32" y2="412.69"/>
<line x1="627.54" y1="412.69" x2="627.54" y2="369.14"/>
<line x1="557.5" y1="369.14" x2="557.5" y2="412.69"/>
<line x1="557.17" y1="412.69" x2="557.17" y2="369.14"/>
<line x1="557.26" y1="369.14" x2="557.26" y2="412.69"/>
<line x1="557.56" y1="369.14" x2="557.56" y2="412.69"/>
<line x1="242.32" y1="369.14" x2="242.32" y2="412.69"/>
<line x1="362.6" y1="369.14" x2="362.6" y2="412.69"/>
<line x1="356.87" y1="412.69" x2="356.87" y2="369.14"/>
<line x1="99.61" y1="278.42" x2="99.61" y2="235.04"/>
<line x1="788.37" y1="233.37" x2="788.33" y2="276.25"/>
<line x1="477.15" y1="233.37" x2="477.12" y2="276.25"/>
<line x1="667.64" y1="276.25" x2="667.65" y2="233.37"/>
<line x1="667.67" y1="233.37" x2="667.68" y2="276.25"/>
<line x1="788.2" y1="233.37" x2="788.21" y2="276.25"/>
<line x1="788.12" y1="233.37" x2="788.13" y2="276.25"/>
<line x1="787.85" y1="233.37" x2="787.86" y2="276.25"/>
<line x1="788.0" y1="276.25" x2="788.01" y2="233.37"/>
<line x1="788.04" y1="233.37" x2="788.05" y2="276.25"/>
<line x1="787.89" y1="276.25" x2="787.9" y2="233.37"/>
<line x1="788.33" y1="276.25" x2="788.34" y2="233.37"/>
<line x1="436.43" y1="233.37" x2="436.44" y2="276.25"/>
<line x1="436.47" y1="276.25" x2="436.48" y2="233.37"/>
<line x1="436.84" y1="276.25" x2="436.85" y2="233.37"/>
<line x1="436.91" y1="276.25" x2="436.92" y2="233.37"/>
<line x1="436.51" y1="233.37" x2="436.52" y2="276.25"/>
<line x1="436.58" y1="276.25" x2="436.59" y2="233.37"/>
<line x1="436.62" y1="233.37" x2="436.63" y2="276.25"/>
<line x1="436.7" y1="233.37" x2="436.71" y2="276.25"/>
<line x1="476.83" y1="233.37" x2="476.84" y2="276.25"/>
<line x1="477.12" y1="276.25" x2="477.13" y2="233.37"/>
<line x1="476.99" y1="233.37" x2="477.0" y2="276.25"/>
<line x1="476.79" y1="276.25" x2="476.8" y2="233.37"/>
<line x1="476.72" y1="233.37" x2="476.73" y2="276.25"/>
<line x1="824.87" y1="233.37" x2="824.87" y2="276.25"/>
<line x1="830.66" y1="276.25" x2="830.66" y2="233.37"/>
<line x1="786.18" y1="233.37" x2="786.18" y2="276.25"/>
<line x1="780.39" y1="233.37" x2="780.39" y2="276.25"/>
<line x1="676.59" y1="276.25" x2="676.59" y2="233.37"/>
<line x1="661.77" y1="233.37" x2="661.77" y2="276.25"/>
<line x1="810.05" y1="233.37" x2="810.05" y2="276.25"/>
<line x1="815.83" y1="276.25" x2="815.83" y2="233.37"/>
<line x1="576.05" y1="233.37" x2="576.05" y2="276.25"/>
<line x1="795.22" y1="233.37" x2="795.22" y2="276.25"/>
<line x1="594.86" y1="233.37" x2="594.86" y2="276.25"/>
<line x1="646.94" y1="276.25" x2="646.94" y2="233.37"/>
<line x1="604.26" y1="276.25" x2="604.26" y2="233.37"/>
<line x1="598.48" y1="233.37" x2="598.48" y2="276.25"/>
<line x1="623.07" y1="233.37" x2="623.07" y2="276.25"/>
<line x1="607.88" y1="233.37" x2="607.88" y2="276.25"/>
<line x1="632.11" y1="233.37" x2="632.11" y2="276.25"/>
<line x1="304.55" y1="276.25" x2="304.55" y2="233.37"/>
<line x1="458.61" y1="276.25" x2="458.61" y2="233.37"/>
<line x1="452.83" y1="233.37" x2="452.83" y2="276.25"/>
<line x1="473.44" y1="233.37" x2="473.44" y2="276.25"/>
<line x1="467.66" y1="276.25" x2="467.66" y2="233.37"/>
<line x1="325.16" y1="233.37" x2="325.16" y2="276.25"/>
<line x1="319.38" y1="276.25" x2="319.38" y2="233.37"/>
<line x1="482.48" y1="233.37" x2="482.48" y2="276.25"/>
<line x1="428.96" y1="233.37" x2="428.96" y2="276.25"/>
<line x1="443.79" y1="233.37" x2="443.79" y2="276.25"/>
<line x1="438.0" y1="276.25" x2="438.0" y2="233.37"/>
<line x1="823.57" y1="276.25" x2="823.57" y2="233.37"/>
<line x1="788.29" y1="233.37" x2="788.29" y2="276.25"/>
<line x1="787.97" y1="276.25" x2="787.97" y2="233.37"/>
<line x1="476.57" y1="233.37" x2="476.57" y2="276.25"/>
<line x1="436.75" y1="276.25" x2="436.75" y2="233.37"/>
<line x1="436.87" y1="233.37" x2="436.87" y2="276.25"/>
<line x1="477.08" y1="233.37" x2="477.08" y2="276.25"/>
<line x1="477.05" y1="276.25" x2="477.05" y2="233.37"/>
<line x1="585.46" y1="233.37" x2="585.46" y2="276.25"/>
<line x1="589.07" y1="276.25" x2="589.07" y2="233.37"/>
<line x1="579.67" y1="233.37" x2="579.67" y2="276.25"/>
<line x1="667.55" y1="233.37" x2="667.55" y2="276.25"/>
<line x1="821.92" y1="276.25" x2="821.92" y2="233.37"/>
<line x1="88.13" y1="521.91" x2="88.13" y2="480.33"/>
<line x1="860.32" y1="521.91" x2="860.32" y2="480.33"/>
<line x1="771.35" y1="233.37" x2="771.35" y2="274.61"/>
<line x1="156.96" y1="279.38" x2="156.96" y2="238.62"/>
<line x1="155.24" y1="238.62" x2="155.24" y2="279.38"/>
<line x1="452.0" y1="96.57" x2="492.5" y2="96.57"/>
<line x1="868.26" y1="326.96" x2="868.26" y2="286.65"/>
<line x1="242.81" y1="239.75" x2="242.83" y2="279.38"/>
<line x1="242.88" y1="239.75" x2="242.9" y2="279.38"/>
<line x1="242.8" y1="279.38" x2="242.81" y2="239.75"/>
<line x1="242.87" y1="279.38" x2="242.88" y2="239.75"/>
<line x1="242.74" y1="239.75" x2="242.75" y2="279.38"/>
<line x1="242.54" y1="279.38" x2="242.55" y2="239.75"/>
<line x1="242.47" y1="239.75" x2="242.48" y2="279.38"/>
<line x1="242.32" y1="239.75" x2="242.32" y2="279.38"/>
<line x1="88.13" y1="276.28" x2="88.13" y2="237.18"/>
<line x1="203.53" y1="528.79" x2="242.01" y2="528.79"/>
<line x1="203.53" y1="528.95" x2="242.01" y2="528.95"/>
<line x1="203.53" y1="528.89" x2="242.01" y2="528.89"/>
<line x1="332.46" y1="536.70" x2="370.29" y2="536.70"/>
<line x1="718.28" y1="536.70" x2="756.11" y2="536.70"/>
<line x1="589.67" y1="536.70" x2="627.5" y2="536.70"/>
<line x1="461.07" y1="536.70" x2="498.9" y2="536.70"/>
<line x1="203.86" y1="536.70" x2="241.68" y2="536.70"/>
<line x1="414.13" y1="276.25" x2="414.13" y2="238.62"/>
<line x1="114.06" y1="199.08" x2="114.06" y2="162.23"/>
<line x1="99.42" y1="162.23" x2="99.42" y2="199.08"/>
<line x1="849.81" y1="199.08" x2="849.81" y2="162.23"/>
<line x1="835.17" y1="162.23" x2="835.17" y2="199.08"/>
<line x1="627.34" y1="276.25" x2="627.38" y2="239.75"/>
<line x1="667.72" y1="276.25" x2="667.75" y2="239.75"/>
<line x1="627.38" y1="239.75" x2="627.39" y2="276.25"/>
<line x1="627.18" y1="276.25" x2="627.19" y2="239.75"/>
<line x1="627.26" y1="276.25" x2="627.27" y2="239.75"/>
<line x1="627.47" y1="239.75" x2="627.47" y2="276.25"/>
<line x1="627.03" y1="239.75" x2="627.03" y2="276.25"/>
<line x1="627.3" y1="239.75" x2="627.3" y2="276.25"/>
<line x1="627.54" y1="276.25" x2="627.54" y2="239.75"/>
<line x1="627.11" y1="239.75" x2="627.11" y2="276.25"/>
<line x1="627.07" y1="276.25" x2="627.07" y2="239.75"/>
<line x1="579.67" y1="414.65" x2="579.67" y2="450.67"/>
<line x1="29.86" y1="244.06" x2="29.86" y2="208.74"/>
<line x1="918.72" y1="298.03" x2="918.72" y2="262.80"/>
<line x1="823.57" y1="444.98" x2="823.57" y2="412.69"/>
<line x1="765.56" y1="233.37" x2="765.56" y2="264.74"/>
<line x1="126.31" y1="412.69" x2="126.31" y2="444.05"/>
<line x1="128.02" y1="444.05" x2="128.02" y2="412.69"/>
<line x1="30.72" y1="246.66" x2="49.09" y2="272.01"/>
<line x1="917.86" y1="300.72" x2="899.49" y2="326.07"/>
<line x1="691.42" y1="233.37" x2="691.42" y2="264.16"/>
<line x1="756.52" y1="264.04" x2="756.52" y2="233.37"/>
<line x1="750.73" y1="233.37" x2="750.73" y2="264.04"/>
<line x1="741.69" y1="233.37" x2="741.69" y2="264.04"/>
<line x1="726.86" y1="233.37" x2="726.86" y2="264.04"/>
<line x1="712.04" y1="233.37" x2="712.04" y2="264.04"/>
<line x1="549.75" y1="233.37" x2="549.75" y2="264.04"/>
<line x1="540.35" y1="233.37" x2="540.35" y2="264.04"/>
<line x1="536.73" y1="233.37" x2="536.73" y2="264.04"/>
<line x1="512.14" y1="233.37" x2="512.14" y2="264.04"/>
<line x1="521.54" y1="264.04" x2="521.54" y2="233.37"/>
<line x1="497.31" y1="233.37" x2="497.31" y2="264.04"/>
<line x1="517.93" y1="264.04" x2="517.93" y2="233.37"/>
<line x1="747.65" y1="233.37" x2="747.65" y2="264.04"/>
<line x1="557.4" y1="233.37" x2="557.41" y2="264.03"/>
<line x1="706.25" y1="233.37" x2="706.25" y2="264.03"/>
<line x1="555.54" y1="233.37" x2="555.54" y2="264.03"/>
<line x1="559.15" y1="233.37" x2="559.15" y2="264.03"/>
<line x1="564.94" y1="264.03" x2="564.94" y2="233.37"/>
<line x1="238.55" y1="279.38" x2="238.55" y2="249.02"/>
<line x1="160.44" y1="279.38" x2="160.44" y2="249.61"/>
<line x1="218.3" y1="249.69" x2="218.3" y2="279.38"/>
<line x1="224.09" y1="279.38" x2="224.09" y2="249.69"/>
<line x1="171.42" y1="279.38" x2="171.42" y2="249.69"/>
<line x1="200.35" y1="279.38" x2="200.35" y2="249.69"/>
<line x1="166.22" y1="279.38" x2="166.22" y2="249.69"/>
<line x1="209.62" y1="279.38" x2="209.62" y2="249.69"/>
<line x1="169.7" y1="249.69" x2="169.7" y2="279.38"/>
<line x1="203.84" y1="249.69" x2="203.84" y2="279.38"/>
<line x1="195.16" y1="279.38" x2="195.16" y2="249.69"/>
<line x1="185.89" y1="279.38" x2="185.89" y2="249.69"/>
<line x1="198.64" y1="249.69" x2="198.64" y2="279.38"/>
<line x1="180.69" y1="279.38" x2="180.69" y2="249.69"/>
<line x1="184.17" y1="249.69" x2="184.17" y2="279.38"/>
<line x1="555.54" y1="421.88" x2="555.54" y2="450.67"/>
<line x1="917.86" y1="260.39" x2="899.49" y2="238.93"/>
<line x1="30.72" y1="206.34" x2="49.09" y2="184.88"/>
<line x1="52.56" y1="174.23" x2="80.32" y2="174.23"/>
<line x1="847.97" y1="235.04" x2="847.96" y2="261.76"/>
<line x1="349.03" y1="249.69" x2="349.03" y2="276.25"/>
<line x1="354.82" y1="249.69" x2="354.82" y2="276.25"/>
<line x1="339.99" y1="249.69" x2="339.99" y2="276.25"/>
<line x1="378.69" y1="276.25" x2="378.69" y2="249.69"/>
<line x1="393.52" y1="249.69" x2="393.52" y2="276.25"/>
<line x1="399.3" y1="276.25" x2="399.3" y2="249.69"/>
<line x1="369.65" y1="249.69" x2="369.65" y2="276.25"/>
<line x1="363.86" y1="249.69" x2="363.86" y2="276.25"/>
<line x1="362.6" y1="276.25" x2="362.6" y2="249.69"/>
<line x1="356.87" y1="276.25" x2="356.87" y2="249.69"/>
<line x1="604.26" y1="444.98" x2="604.26" y2="418.48"/>
<line x1="506.75" y1="81.50" x2="480.93" y2="81.50"/>
<line x1="463.57" y1="81.50" x2="437.76" y2="81.50"/>
<line x1="821.92" y1="412.69" x2="821.92" y2="438.48"/>
<line x1="362.6" y1="412.69" x2="362.6" y2="438.48"/>
<line x1="356.87" y1="412.69" x2="356.87" y2="438.48"/>
<line x1="131.5" y1="418.88" x2="131.5" y2="444.05"/>
<line x1="667.55" y1="444.98" x2="667.55" y2="420.37"/>
<line x1="598.48" y1="420.60" x2="598.48" y2="444.98"/>
<line x1="748.13" y1="264.04" x2="748.16" y2="239.75"/>
<line x1="747.96" y1="264.04" x2="747.97" y2="239.75"/>
<line x1="748.16" y1="239.75" x2="748.16" y2="264.04"/>
<line x1="747.84" y1="239.75" x2="747.84" y2="264.04"/>
<line x1="747.76" y1="264.04" x2="747.76" y2="239.75"/>
<line x1="747.92" y1="239.75" x2="747.92" y2="264.04"/>
<line x1="747.73" y1="239.75" x2="747.73" y2="264.04"/>
<line x1="748.06" y1="264.04" x2="748.06" y2="239.75"/>
<line x1="557.2" y1="264.03" x2="557.21" y2="239.75"/>
<line x1="557.24" y1="239.75" x2="557.25" y2="264.03"/>
<line x1="557.09" y1="264.03" x2="557.1" y2="239.75"/>
<line x1="557.32" y1="239.75" x2="557.32" y2="264.03"/>
<line x1="557.05" y1="239.75" x2="557.05" y2="264.03"/>
<line x1="557.49" y1="239.75" x2="557.49" y2="264.03"/>
<line x1="557.17" y1="264.03" x2="557.17" y2="239.75"/>
<line x1="557.56" y1="264.03" x2="557.56" y2="239.75"/>
<line x1="585.46" y1="420.75" x2="585.46" y2="444.98"/>
<line x1="349.03" y1="420.80" x2="349.03" y2="444.98"/>
<line x1="815.83" y1="444.98" x2="815.83" y2="420.83"/>
<line x1="369.65" y1="420.95" x2="369.65" y2="444.98"/>
<line x1="517.93" y1="444.98" x2="517.93" y2="421.03"/>
<line x1="137.29" y1="444.05" x2="137.29" y2="420.42"/>
<line x1="460.45" y1="97.06" x2="484.06" y2="97.06"/>
<line x1="438.0" y1="444.98" x2="438.0" y2="421.51"/>
<line x1="706.25" y1="421.57" x2="706.25" y2="444.98"/>
<line x1="242.04" y1="420.76" x2="242.04" y2="444.05"/>
<line x1="558.43" y1="444.42" x2="558.43" y2="421.32"/>
<line x1="281.95" y1="444.05" x2="281.97" y2="421.02"/>
<line x1="899.49" y1="326.07" x2="876.52" y2="326.07"/>
<line x1="49.09" y1="272.01" x2="72.05" y2="272.01"/>
<line x1="786.18" y1="422.04" x2="786.18" y2="444.98"/>
<line x1="243.75" y1="444.05" x2="243.75" y2="421.30"/>
<line x1="325.16" y1="422.27" x2="325.16" y2="444.98"/>
<line x1="203.82" y1="421.57" x2="203.84" y2="444.05"/>
<line x1="160.44" y1="444.05" x2="160.44" y2="421.91"/>
<line x1="399.3" y1="444.98" x2="399.3" y2="422.97"/>
<line x1="750.73" y1="422.98" x2="750.73" y2="444.98"/>
<line x1="393.52" y1="423.05" x2="393.52" y2="444.98"/>
<line x1="200.35" y1="444.05" x2="200.35" y2="422.19"/>
<line x1="473.42" y1="423.54" x2="473.44" y2="444.98"/>
<line x1="285.43" y1="422.74" x2="285.43" y2="444.05"/>
<line x1="319.38" y1="444.98" x2="319.38" y2="423.75"/>
<line x1="788.01" y1="225.33" x2="788.04" y2="204.31"/>
<line x1="627.08" y1="204.31" x2="627.11" y2="225.33"/>
<line x1="436.48" y1="204.31" x2="436.51" y2="225.33"/>
<line x1="476.8" y1="204.31" x2="476.83" y2="225.33"/>
<line x1="667.65" y1="204.31" x2="667.67" y2="225.33"/>
<line x1="748.14" y1="225.33" x2="748.16" y2="204.31"/>
<line x1="788.35" y1="204.31" x2="788.37" y2="225.33"/>
<line x1="627.35" y1="225.33" x2="627.37" y2="204.31"/>
<line x1="627.27" y1="225.33" x2="627.29" y2="204.31"/>
<line x1="627.52" y1="225.33" x2="627.54" y2="204.31"/>
<line x1="436.6" y1="204.31" x2="436.62" y2="225.33"/>
<line x1="436.85" y1="204.31" x2="436.87" y2="225.33"/>
<line x1="477.06" y1="225.33" x2="477.08" y2="204.31"/>
<line x1="557.22" y1="204.31" x2="557.24" y2="225.33"/>
<line x1="242.56" y1="204.31" x2="242.58" y2="225.33"/>
<line x1="242.81" y1="225.33" x2="242.83" y2="204.31"/>
<line x1="747.64" y1="204.31" x2="747.65" y2="225.33"/>
<line x1="788.34" y1="225.33" x2="788.35" y2="204.31"/>
<line x1="748.06" y1="225.33" x2="748.07" y2="204.31"/>
<line x1="627.37" y1="204.31" x2="627.38" y2="225.33"/>
<line x1="627.02" y1="204.31" x2="627.03" y2="225.33"/>
<line x1="627.07" y1="225.33" x2="627.08" y2="204.31"/>
<line x1="436.92" y1="225.33" x2="436.93" y2="204.31"/>
<line x1="436.59" y1="225.33" x2="436.6" y2="204.31"/>
<line x1="477.13" y1="225.33" x2="477.14" y2="204.31"/>
<line x1="477.14" y1="204.31" x2="477.15" y2="225.33"/>
<line x1="476.71" y1="204.31" x2="476.72" y2="225.33"/>
<line x1="557.21" y1="225.33" x2="557.22" y2="204.31"/>
<line x1="557.54" y1="225.33" x2="557.55" y2="204.31"/>
<line x1="557.55" y1="204.31" x2="557.56" y2="225.33"/>
<line x1="242.88" y1="225.33" x2="242.89" y2="204.31"/>
<line x1="242.89" y1="204.31" x2="242.9" y2="225.33"/>
<line x1="242.55" y1="225.33" x2="242.56" y2="204.31"/>
<line x1="824.87" y1="204.31" x2="824.87" y2="225.33"/>
<line x1="830.66" y1="225.33" x2="830.66" y2="204.31"/>
<line x1="786.18" y1="204.31" x2="786.18" y2="225.33"/>
<line x1="780.39" y1="204.31" x2="780.39" y2="225.33"/>
<line x1="589.07" y1="225.33" x2="589.07" y2="204.31"/>
<line x1="676.59" y1="225.33" x2="676.59" y2="204.31"/>
<line x1="661.77" y1="204.31" x2="661.77" y2="225.33"/>
<line x1="667.55" y1="225.33" x2="667.55" y2="204.31"/>
<line x1="579.67" y1="204.31" x2="579.67" y2="225.33"/>
<line x1="585.46" y1="204.31" x2="585.46" y2="225.33"/>
<line x1="810.05" y1="204.31" x2="810.05" y2="225.33"/>
<line x1="815.83" y1="225.33" x2="815.83" y2="204.31"/>
<line x1="576.05" y1="204.31" x2="576.05" y2="225.33"/>
<line x1="795.22" y1="204.31" x2="795.22" y2="225.33"/>
<line x1="594.86" y1="204.31" x2="594.86" y2="225.33"/>
<line x1="646.94" y1="225.33" x2="646.94" y2="204.31"/>
<line x1="604.26" y1="225.33" x2="604.26" y2="204.31"/>
<line x1="598.48" y1="204.31" x2="598.48" y2="225.33"/>
<line x1="706.25" y1="204.31" x2="706.25" y2="225.33"/>
<line x1="756.52" y1="225.33" x2="756.52" y2="204.31"/>
<line x1="750.73" y1="204.31" x2="750.73" y2="225.33"/>
<line x1="741.69" y1="204.31" x2="741.69" y2="225.33"/>
<line x1="765.56" y1="204.31" x2="765.56" y2="225.33"/>
<line x1="771.35" y1="204.31" x2="771.35" y2="225.33"/>
<line x1="691.42" y1="204.31" x2="691.42" y2="225.33"/>
<line x1="726.86" y1="204.31" x2="726.86" y2="225.33"/>
<line x1="623.07" y1="204.31" x2="623.07" y2="225.33"/>
<line x1="607.88" y1="204.31" x2="607.88" y2="225.33"/>
<line x1="632.11" y1="204.31" x2="632.11" y2="225.33"/>
<line x1="712.04" y1="204.31" x2="712.04" y2="225.33"/>
<line x1="117.04" y1="204.31" x2="117.04" y2="225.33"/>
<line x1="126.31" y1="204.31" x2="126.31" y2="225.33"/>
<line x1="122.82" y1="225.33" x2="122.82" y2="204.31"/>
<line x1="267.49" y1="225.33" x2="267.49" y2="204.31"/>
<line x1="261.7" y1="204.31" x2="261.7" y2="225.33"/>
<line x1="299.9" y1="204.31" x2="299.9" y2="225.33"/>
<line x1="290.63" y1="225.33" x2="290.63" y2="204.31"/>
<line x1="287.15" y1="225.33" x2="287.15" y2="204.31"/>
<line x1="145.97" y1="204.31" x2="145.97" y2="225.33"/>
<line x1="142.49" y1="225.33" x2="142.49" y2="204.31"/>
<line x1="285.43" y1="204.31" x2="285.43" y2="225.33"/>
<line x1="258.22" y1="225.33" x2="258.22" y2="204.31"/>
<line x1="247.23" y1="204.31" x2="247.23" y2="225.33"/>
<line x1="137.29" y1="225.33" x2="137.29" y2="204.31"/>
<line x1="131.5" y1="204.31" x2="131.5" y2="225.33"/>
<line x1="276.17" y1="204.31" x2="276.17" y2="225.33"/>
<line x1="128.02" y1="225.33" x2="128.02" y2="204.31"/>
<line x1="140.77" y1="204.31" x2="140.77" y2="225.33"/>
<line x1="243.75" y1="225.33" x2="243.75" y2="204.31"/>
<line x1="281.95" y1="225.33" x2="281.95" y2="204.31"/>
<line x1="113.56" y1="225.33" x2="113.56" y2="204.31"/>
<line x1="242.04" y1="204.31" x2="242.04" y2="225.33"/>
<line x1="304.55" y1="225.33" x2="304.55" y2="204.31"/>
<line x1="458.61" y1="225.33" x2="458.61" y2="204.31"/>
<line x1="452.83" y1="204.31" x2="452.83" y2="225.33"/>
<line x1="473.44" y1="204.31" x2="473.44" y2="225.33"/>
<line x1="467.66" y1="225.33" x2="467.66" y2="204.31"/>
<line x1="555.54" y1="204.31" x2="555.54" y2="225.33"/>
<line x1="549.75" y1="204.31" x2="549.75" y2="225.33"/>
<line x1="325.16" y1="204.31" x2="325.16" y2="225.33"/>
<line x1="319.38" y1="225.33" x2="319.38" y2="204.31"/>
<line x1="559.15" y1="204.31" x2="559.15" y2="225.33"/>
<line x1="564.94" y1="225.33" x2="564.94" y2="204.31"/>
<line x1="482.48" y1="204.31" x2="482.48" y2="225.33"/>
<line x1="540.35" y1="204.31" x2="540.35" y2="225.33"/>
<line x1="536.73" y1="204.31" x2="536.73" y2="225.33"/>
<line x1="428.96" y1="204.31" x2="428.96" y2="225.33"/>
<line x1="443.79" y1="204.31" x2="443.79" y2="225.33"/>
<line x1="438.0" y1="225.33" x2="438.0" y2="204.31"/>
<line x1="512.14" y1="204.31" x2="512.14" y2="225.33"/>
<line x1="521.54" y1="225.33" x2="521.54" y2="204.31"/>
<line x1="497.31" y1="204.31" x2="497.31" y2="225.33"/>
<line x1="517.93" y1="225.33" x2="517.93" y2="204.31"/>
<line x1="109.95" y1="225.33" x2="109.95" y2="204.31"/>
<line x1="838.5" y1="225.33" x2="838.5" y2="204.31"/>
<line x1="823.57" y1="225.33" x2="823.57" y2="204.31"/>
<line x1="748.16" y1="204.31" x2="748.16" y2="225.33"/>
<line x1="667.65" y1="225.33" x2="667.65" y2="204.31"/>
<line x1="667.73" y1="225.33" x2="667.73" y2="204.31"/>
<line x1="788.2" y1="204.31" x2="788.2" y2="225.33"/>
<line x1="788.12" y1="204.31" x2="788.12" y2="225.33"/>
<line x1="787.85" y1="204.31" x2="787.85" y2="225.33"/>
<line x1="788.29" y1="204.31" x2="788.29" y2="225.33"/>
<line x1="747.84" y1="204.31" x2="747.84" y2="225.33"/>
<line x1="747.76" y1="225.33" x2="747.76" y2="204.31"/>
<line x1="747.91" y1="204.31" x2="747.91" y2="225.33"/>
<line x1="747.72" y1="204.31" x2="747.72" y2="225.33"/>
<line x1="788.04" y1="204.31" x2="788.04" y2="225.33"/>
<line x1="787.97" y1="225.33" x2="787.97" y2="204.31"/>
<line x1="787.9" y1="225.33" x2="787.9" y2="204.31"/>
<line x1="747.97" y1="225.33" x2="747.97" y2="204.31"/>
<line x1="627.47" y1="204.31" x2="627.47" y2="225.33"/>
<line x1="627.29" y1="204.31" x2="627.29" y2="225.33"/>
<line x1="627.54" y1="225.33" x2="627.54" y2="204.31"/>
<line x1="627.19" y1="225.33" x2="627.19" y2="204.31"/>
<line x1="436.43" y1="204.31" x2="436.43" y2="225.33"/>
<line x1="436.48" y1="225.33" x2="436.48" y2="204.31"/>
<line x1="436.85" y1="225.33" x2="436.85" y2="204.31"/>
<line x1="476.57" y1="204.31" x2="476.57" y2="225.33"/>
<line x1="436.76" y1="225.33" x2="436.76" y2="204.31"/>
<line x1="436.7" y1="204.31" x2="436.7" y2="225.33"/>
<line x1="477.08" y1="204.31" x2="477.08" y2="225.33"/>
<line x1="476.99" y1="204.31" x2="476.99" y2="225.33"/>
<line x1="476.8" y1="225.33" x2="476.8" y2="204.31"/>
<line x1="557.4" y1="204.31" x2="557.4" y2="225.33"/>
<line x1="557.32" y1="204.31" x2="557.32" y2="225.33"/>
<line x1="557.05" y1="204.31" x2="557.05" y2="225.33"/>
<line x1="557.49" y1="204.31" x2="557.49" y2="225.33"/>
<line x1="557.17" y1="225.33" x2="557.17" y2="204.31"/>
<line x1="557.1" y1="225.33" x2="557.1" y2="204.31"/>
<line x1="242.32" y1="204.31" x2="242.32" y2="225.33"/>
<line x1="242.83" y1="204.31" x2="242.83" y2="225.33"/>
<line x1="242.74" y1="204.31" x2="242.74" y2="225.33"/>
<line x1="242.47" y1="204.31" x2="242.47" y2="225.33"/>
<line x1="821.92" y1="204.31" x2="821.92" y2="225.33"/>
<line x1="623.06" y1="424.27" x2="623.07" y2="444.98"/>
<line x1="712.04" y1="424.45" x2="712.04" y2="444.98"/>
<line x1="515.4" y1="102.58" x2="515.4" y2="82.09"/>
<line x1="429.1" y1="102.58" x2="429.1" y2="82.09"/>
<line x1="521.54" y1="444.98" x2="521.54" y2="424.55"/>
<line x1="868.26" y1="289.09" x2="847.97" y2="289.09"/>
<line x1="198.64" y1="423.86" x2="198.64" y2="444.05"/>
<line x1="632.11" y1="424.92" x2="632.11" y2="444.98"/>
<line x1="847.97" y1="224.36" x2="847.97" y2="204.31"/>
<line x1="512.14" y1="424.99" x2="512.14" y2="444.98"/>
<line x1="166.24" y1="444.05" x2="166.22" y2="424.10"/>
<line x1="238.55" y1="444.05" x2="238.55" y2="424.14"/>
<line x1="287.15" y1="444.05" x2="287.15" y2="424.41"/>
<line x1="247.23" y1="424.69" x2="247.23" y2="444.05"/>
<line x1="482.48" y1="425.66" x2="482.48" y2="444.98"/>
<line x1="80.32" y1="235.04" x2="99.61" y2="235.04"/>
<line x1="661.77" y1="425.73" x2="661.77" y2="444.98"/>
<line x1="741.69" y1="426.20" x2="741.69" y2="444.98"/>
<line x1="156.96" y1="444.05" x2="156.96" y2="425.30"/>
<line x1="558.38" y1="444.98" x2="576.83" y2="444.98"/>
<line x1="868.26" y1="264.41" x2="868.26" y2="282.72"/>
<line x1="576.78" y1="439.15" x2="576.78" y2="420.91"/>
<line x1="232.76" y1="369.83" x2="232.76" y2="387.91"/>
<line x1="232.76" y1="297.55" x2="232.76" y2="315.62"/>
<line x1="232.76" y1="405.98" x2="232.76" y2="424.05"/>
<line x1="232.76" y1="387.91" x2="232.76" y2="405.98"/>
<line x1="232.76" y1="351.76" x2="232.76" y2="369.83"/>
<line x1="232.76" y1="333.69" x2="232.76" y2="351.76"/>
<line x1="232.76" y1="315.62" x2="232.76" y2="333.69"/>
<line x1="232.76" y1="261.40" x2="232.77" y2="279.38"/>
<line x1="443.79" y1="427.13" x2="443.79" y2="444.98"/>
<line x1="795.22" y1="427.14" x2="795.22" y2="444.98"/>
<line x1="549.75" y1="427.51" x2="549.75" y2="444.98"/>
<line x1="276.17" y1="426.66" x2="276.17" y2="444.05"/>
<line x1="227.59" y1="370.11" x2="227.57" y2="387.44"/>
<line x1="227.59" y1="388.18" x2="227.57" y2="405.51"/>
<line x1="227.59" y1="315.89" x2="227.57" y2="333.22"/>
<line x1="227.59" y1="261.68" x2="227.57" y2="279.01"/>
<line x1="227.59" y1="297.82" x2="227.57" y2="315.15"/>
<line x1="227.59" y1="406.25" x2="227.57" y2="423.58"/>
<line x1="227.59" y1="333.97" x2="227.57" y2="351.30"/>
<line x1="780.39" y1="427.66" x2="780.39" y2="444.98"/>
<line x1="428.96" y1="427.68" x2="428.96" y2="444.98"/>
<line x1="99.42" y1="195.22" x2="82.18" y2="195.22"/>
<line x1="155.24" y1="426.96" x2="155.24" y2="444.05"/>
<line x1="227.59" y1="352.04" x2="227.6" y2="369.12"/>
<line x1="80.32" y1="178.73" x2="80.54" y2="195.79"/>
<line x1="447.78" y1="81.20" x2="430.86" y2="81.20"/>
<line x1="513.64" y1="81.20" x2="496.73" y2="81.20"/>
<line x1="463.81" y1="81.50" x2="480.7" y2="81.50"/>
<line x1="209.62" y1="444.05" x2="209.62" y2="427.21"/>
<line x1="195.16" y1="444.05" x2="195.16" y2="427.24"/>
<line x1="617.28" y1="333.01" x2="617.28" y2="316.24"/>
<line x1="617.28" y1="423.37" x2="617.28" y2="406.60"/>
<line x1="617.28" y1="224.58" x2="617.28" y2="207.81"/>
<line x1="617.28" y1="260.72" x2="617.28" y2="243.95"/>
<line x1="617.28" y1="351.08" x2="617.28" y2="334.31"/>
<line x1="617.28" y1="387.22" x2="617.28" y2="370.46"/>
<line x1="617.28" y1="405.29" x2="617.28" y2="388.53"/>
<line x1="617.28" y1="369.14" x2="617.28" y2="352.38"/>
<line x1="617.28" y1="314.93" x2="617.28" y2="298.17"/>
<line x1="65.68" y1="280.84" x2="82.31" y2="280.84"/>
<line x1="82.31" y1="286.50" x2="65.68" y2="286.50"/>
<line x1="866.27" y1="226.92" x2="882.89" y2="226.92"/>
<line x1="882.89" y1="232.59" x2="866.27" y2="232.59"/>
<line x1="882.89" y1="235.23" x2="899.49" y2="236.03"/>
<line x1="82.26" y1="224.36" x2="98.85" y2="224.36"/>
<line x1="682.38" y1="370.40" x2="682.38" y2="386.98"/>
<line x1="682.38" y1="298.11" x2="682.38" y2="314.69"/>
<line x1="682.38" y1="316.18" x2="682.38" y2="332.76"/>
<line x1="682.38" y1="406.54" x2="682.38" y2="423.12"/>
<line x1="682.38" y1="207.75" x2="682.38" y2="224.33"/>
<line x1="682.38" y1="243.89" x2="682.38" y2="260.47"/>
<line x1="682.38" y1="388.47" x2="682.38" y2="405.05"/>
<line x1="682.38" y1="334.25" x2="682.38" y2="350.83"/>
<line x1="682.38" y1="352.32" x2="682.38" y2="368.90"/>
<line x1="169.7" y1="427.49" x2="169.7" y2="444.05"/>
<line x1="756.52" y1="444.98" x2="756.52" y2="428.60"/>
<line x1="290.63" y1="444.05" x2="290.63" y2="427.79"/>
<line x1="156.96" y1="220.55" x2="156.96" y2="204.31"/>
<line x1="155.24" y1="204.31" x2="155.24" y2="220.55"/>
<line x1="414.13" y1="220.55" x2="414.13" y2="204.31"/>
<line x1="272.69" y1="260.32" x2="272.69" y2="244.35"/>
<line x1="272.69" y1="224.18" x2="272.69" y2="208.21"/>
<line x1="272.69" y1="332.61" x2="272.69" y2="316.64"/>
<line x1="272.69" y1="350.68" x2="272.69" y2="334.71"/>
<line x1="272.69" y1="404.90" x2="272.69" y2="388.93"/>
<line x1="272.69" y1="314.54" x2="272.69" y2="298.57"/>
<line x1="272.69" y1="422.97" x2="272.69" y2="407.00"/>
<line x1="272.69" y1="386.82" x2="272.69" y2="370.86"/>
<line x1="272.69" y1="368.75" x2="272.69" y2="352.79"/>
<line x1="272.69" y1="278.39" x2="272.69" y2="262.43"/>
<line x1="676.59" y1="444.98" x2="676.59" y2="429.08"/>
<line x1="427.05" y1="98.84" x2="427.05" y2="82.98"/>
<line x1="517.46" y1="98.84" x2="517.46" y2="82.98"/>
<line x1="467.66" y1="444.98" x2="467.66" y2="429.14"/>
<line x1="652.72" y1="208.14" x2="652.72" y2="223.94"/>
<line x1="652.72" y1="244.28" x2="652.72" y2="260.08"/>
<line x1="652.72" y1="406.93" x2="652.72" y2="422.73"/>
<line x1="652.72" y1="316.57" x2="652.72" y2="332.37"/>
<line x1="652.72" y1="388.86" x2="652.72" y2="404.66"/>
<line x1="652.72" y1="334.64" x2="652.72" y2="350.44"/>
<line x1="652.72" y1="298.50" x2="652.72" y2="314.30"/>
<line x1="652.72" y1="352.72" x2="652.72" y2="368.51"/>
<line x1="652.72" y1="370.79" x2="652.72" y2="386.58"/>
<line x1="527.33" y1="244.51" x2="527.33" y2="260.13"/>
<line x1="527.33" y1="371.01" x2="527.33" y2="386.63"/>
<line x1="527.33" y1="352.94" x2="527.33" y2="368.56"/>
<line x1="527.33" y1="334.87" x2="527.33" y2="350.49"/>
<line x1="527.33" y1="208.37" x2="527.33" y2="223.98"/>
<line x1="527.33" y1="316.80" x2="527.33" y2="332.41"/>
<line x1="527.33" y1="407.16" x2="527.33" y2="422.77"/>
<line x1="527.33" y1="389.09" x2="527.33" y2="404.70"/>
<line x1="238.55" y1="248.84" x2="238.55" y2="233.37"/>
<line x1="97.33" y1="204.31" x2="81.96" y2="204.31"/>
<line x1="97.32" y1="204.23" x2="81.96" y2="204.21"/>
<line x1="97.32" y1="203.55" x2="81.96" y2="203.55"/>
<line x1="253.02" y1="314.13" x2="253.02" y2="298.90"/>
<line x1="253.02" y1="404.49" x2="253.02" y2="389.26"/>
<line x1="253.02" y1="386.42" x2="253.02" y2="371.19"/>
<line x1="253.02" y1="277.98" x2="253.02" y2="262.76"/>
<line x1="253.02" y1="332.20" x2="253.02" y2="316.98"/>
<line x1="253.02" y1="368.34" x2="253.02" y2="353.12"/>
<line x1="253.02" y1="350.27" x2="253.02" y2="335.05"/>
<line x1="253.02" y1="422.56" x2="253.02" y2="407.34"/>
<line x1="253.02" y1="223.77" x2="253.02" y2="208.55"/>
<line x1="253.02" y1="259.91" x2="253.02" y2="244.69"/>
<line x1="151.76" y1="368.31" x2="151.76" y2="353.17"/>
<line x1="151.76" y1="386.38" x2="151.76" y2="371.24"/>
<line x1="151.76" y1="314.09" x2="151.76" y2="298.95"/>
<line x1="151.76" y1="422.52" x2="151.76" y2="407.38"/>
<line x1="151.76" y1="277.95" x2="151.76" y2="262.81"/>
<line x1="151.76" y1="404.45" x2="151.76" y2="389.31"/>
<line x1="151.76" y1="259.87" x2="151.76" y2="244.74"/>
<line x1="151.76" y1="350.23" x2="151.76" y2="335.10"/>
<line x1="151.76" y1="332.16" x2="151.76" y2="317.03"/>
<line x1="697.21" y1="223.72" x2="697.21" y2="208.60"/>
<line x1="697.21" y1="259.87" x2="697.21" y2="244.75"/>
<line x1="697.21" y1="368.30" x2="697.21" y2="353.18"/>
<line x1="697.21" y1="404.44" x2="697.21" y2="389.32"/>
<line x1="697.21" y1="386.37" x2="697.21" y2="371.25"/>
<line x1="697.21" y1="350.23" x2="697.21" y2="335.11"/>
<line x1="697.21" y1="422.51" x2="697.21" y2="407.40"/>
<line x1="697.21" y1="332.15" x2="697.21" y2="317.04"/>
<line x1="617.28" y1="444.98" x2="617.28" y2="429.88"/>
<line x1="82.26" y1="222.23" x2="97.31" y2="222.23"/>
<line x1="101.53" y1="291.23" x2="101.57" y2="276.28"/>
<line x1="82.31" y1="291.23" x2="82.31" y2="276.28"/>
<line x1="97.26" y1="276.28" x2="97.26" y2="291.23"/>
<line x1="102.6" y1="276.28" x2="102.6" y2="291.23"/>
<line x1="691.42" y1="287.43" x2="691.42" y2="302.38"/>
<line x1="866.27" y1="222.23" x2="866.27" y2="237.18"/>
<line x1="851.32" y1="222.23" x2="851.32" y2="237.18"/>
<line x1="171.42" y1="444.05" x2="171.42" y2="429.16"/>
<line x1="218.3" y1="233.37" x2="218.3" y2="248.20"/>
<line x1="224.09" y1="248.20" x2="224.09" y2="233.37"/>
<line x1="171.42" y1="248.20" x2="171.42" y2="233.37"/>
<line x1="200.35" y1="248.20" x2="200.35" y2="233.37"/>
<line x1="166.22" y1="248.20" x2="166.22" y2="233.37"/>
<line x1="209.62" y1="248.20" x2="209.62" y2="233.37"/>
<line x1="169.7" y1="233.37" x2="169.7" y2="248.20"/>
<line x1="203.84" y1="233.37" x2="203.84" y2="248.20"/>
<line x1="195.16" y1="248.20" x2="195.16" y2="233.37"/>
<line x1="185.89" y1="248.20" x2="185.89" y2="233.37"/>
<line x1="198.64" y1="233.37" x2="198.64" y2="248.20"/>
<line x1="180.69" y1="248.20" x2="180.69" y2="233.37"/>
<line x1="184.17" y1="233.37" x2="184.17" y2="248.20"/>
<line x1="349.03" y1="233.37" x2="349.03" y2="248.20"/>
<line x1="354.82" y1="233.37" x2="354.82" y2="248.20"/>
<line x1="339.99" y1="233.37" x2="339.99" y2="248.20"/>
<line x1="378.69" y1="248.20" x2="378.69" y2="233.37"/>
<line x1="393.52" y1="233.37" x2="393.52" y2="248.20"/>
<line x1="399.3" y1="248.20" x2="399.3" y2="233.37"/>
<line x1="369.65" y1="233.37" x2="369.65" y2="248.20"/>
<line x1="363.86" y1="233.37" x2="363.86" y2="248.20"/>
<line x1="747.84" y1="287.43" x2="747.85" y2="302.25"/>
<line x1="747.92" y1="287.43" x2="747.93" y2="302.25"/>
<line x1="748.12" y1="302.25" x2="748.13" y2="287.43"/>
<line x1="557.19" y1="302.25" x2="557.2" y2="287.43"/>
<line x1="706.25" y1="287.43" x2="706.25" y2="302.25"/>
<line x1="756.52" y1="302.25" x2="756.52" y2="287.43"/>
<line x1="750.73" y1="287.43" x2="750.73" y2="302.25"/>
<line x1="741.69" y1="287.43" x2="741.69" y2="302.25"/>
<line x1="726.86" y1="287.43" x2="726.86" y2="302.25"/>
<line x1="712.04" y1="287.43" x2="712.04" y2="302.25"/>
<line x1="555.54" y1="287.43" x2="555.54" y2="302.25"/>
<line x1="549.75" y1="287.43" x2="549.75" y2="302.25"/>
<line x1="559.15" y1="287.43" x2="559.15" y2="302.25"/>
<line x1="564.94" y1="302.25" x2="564.94" y2="287.43"/>
<line x1="540.35" y1="287.43" x2="540.35" y2="302.25"/>
<line x1="536.73" y1="287.43" x2="536.73" y2="302.25"/>
<line x1="512.14" y1="287.43" x2="512.14" y2="302.25"/>
<line x1="521.54" y1="302.25" x2="521.54" y2="287.43"/>
<line x1="517.93" y1="302.25" x2="517.93" y2="287.43"/>
<line x1="748.16" y1="287.43" x2="748.16" y2="302.25"/>
<line x1="747.65" y1="287.43" x2="747.65" y2="302.25"/>
<line x1="747.76" y1="302.25" x2="747.76" y2="287.43"/>
<line x1="747.74" y1="287.43" x2="747.74" y2="302.25"/>
<line x1="748.05" y1="302.25" x2="748.05" y2="287.43"/>
<line x1="747.96" y1="302.25" x2="747.96" y2="287.43"/>
<line x1="557.41" y1="287.43" x2="557.41" y2="302.25"/>
<line x1="557.33" y1="287.43" x2="557.33" y2="302.25"/>
<line x1="557.06" y1="287.43" x2="557.06" y2="302.25"/>
<line x1="557.49" y1="287.43" x2="557.49" y2="302.25"/>
<line x1="557.25" y1="287.43" x2="557.25" y2="302.25"/>
<line x1="557.17" y1="302.25" x2="557.17" y2="287.43"/>
<line x1="557.09" y1="302.25" x2="557.09" y2="287.43"/>
<line x1="557.53" y1="302.25" x2="557.53" y2="287.43"/>
<line x1="557.56" y1="287.43" x2="557.56" y2="302.25"/>
<line x1="527.33" y1="430.17" x2="527.33" y2="444.98"/>
<line x1="637.9" y1="353.38" x2="637.9" y2="368.12"/>
<line x1="637.9" y1="244.95" x2="637.9" y2="259.68"/>
<line x1="637.9" y1="371.46" x2="637.9" y2="386.19"/>
<line x1="637.9" y1="317.24" x2="637.9" y2="331.97"/>
<line x1="637.9" y1="407.60" x2="637.9" y2="422.33"/>
<line x1="637.9" y1="389.53" x2="637.9" y2="404.26"/>
<line x1="637.9" y1="299.17" x2="637.9" y2="313.90"/>
<line x1="637.9" y1="335.31" x2="637.9" y2="350.04"/>
<line x1="637.9" y1="208.81" x2="637.9" y2="223.54"/>
<line x1="0.0" y1="277.78" x2="0.0" y2="292.47"/>
<line x1="948.58" y1="223.73" x2="948.58" y2="238.42"/>
<line x1="213.1" y1="407.63" x2="213.1" y2="422.29"/>
<line x1="213.1" y1="317.27" x2="213.1" y2="331.93"/>
<line x1="213.1" y1="335.34" x2="213.1" y2="350.00"/>
<line x1="213.1" y1="371.49" x2="213.1" y2="386.14"/>
<line x1="213.1" y1="299.20" x2="213.1" y2="313.85"/>
<line x1="213.1" y1="353.42" x2="213.1" y2="368.07"/>
<line x1="213.1" y1="263.06" x2="213.1" y2="277.71"/>
<line x1="213.1" y1="389.56" x2="213.1" y2="404.21"/>
<line x1="99.42" y1="199.08" x2="114.06" y2="199.08"/>
<line x1="114.06" y1="162.23" x2="99.42" y2="162.23"/>
<line x1="835.17" y1="199.08" x2="849.81" y2="199.08"/>
<line x1="849.81" y1="162.23" x2="835.17" y2="162.23"/>
<line x1="697.21" y1="444.98" x2="697.21" y2="430.35"/>
<line x1="238.55" y1="225.33" x2="238.55" y2="210.80"/>
<line x1="637.9" y1="430.54" x2="637.9" y2="444.98"/>
<line x1="682.38" y1="261.96" x2="682.38" y2="276.25"/>
<line x1="232.77" y1="429.76" x2="232.77" y2="444.05"/>
<line x1="503.1" y1="371.57" x2="503.1" y2="385.86"/>
<line x1="503.1" y1="389.64" x2="503.1" y2="403.93"/>
<line x1="503.1" y1="208.92" x2="503.1" y2="223.21"/>
<line x1="503.1" y1="335.43" x2="503.1" y2="349.71"/>
<line x1="503.1" y1="353.50" x2="503.1" y2="367.78"/>
<line x1="503.1" y1="317.36" x2="503.1" y2="331.64"/>
<line x1="503.1" y1="407.72" x2="503.1" y2="422.00"/>
<line x1="503.1" y1="245.07" x2="503.1" y2="259.35"/>
<line x1="617.28" y1="276.25" x2="617.28" y2="262.02"/>
<line x1="256.5" y1="317.40" x2="256.5" y2="331.59"/>
<line x1="256.5" y1="208.97" x2="256.5" y2="223.16"/>
<line x1="256.5" y1="245.11" x2="256.5" y2="259.30"/>
<line x1="256.5" y1="263.18" x2="256.5" y2="277.37"/>
<line x1="256.5" y1="407.76" x2="256.5" y2="421.95"/>
<line x1="256.5" y1="335.47" x2="256.5" y2="349.66"/>
<line x1="256.5" y1="299.33" x2="256.5" y2="313.52"/>
<line x1="256.5" y1="353.54" x2="256.5" y2="367.73"/>
<line x1="530.95" y1="223.15" x2="530.95" y2="208.97"/>
<line x1="256.5" y1="389.69" x2="256.5" y2="403.87"/>
<line x1="530.95" y1="421.94" x2="530.95" y2="407.76"/>
<line x1="530.95" y1="403.87" x2="530.95" y2="389.69"/>
<line x1="530.95" y1="367.73" x2="530.95" y2="353.55"/>
<line x1="256.5" y1="371.62" x2="256.5" y2="385.80"/>
<line x1="530.95" y1="385.80" x2="530.95" y2="371.62"/>
<line x1="530.95" y1="349.65" x2="530.95" y2="335.48"/>
<line x1="530.95" y1="331.58" x2="530.95" y2="317.41"/>
<line x1="530.95" y1="259.29" x2="530.95" y2="245.12"/>
<line x1="546.14" y1="259.35" x2="546.11" y2="245.29"/>
<line x1="546.14" y1="385.85" x2="546.11" y2="371.79"/>
<line x1="546.14" y1="367.78" x2="546.11" y2="353.72"/>
<line x1="546.14" y1="223.20" x2="546.11" y2="209.15"/>
<line x1="546.14" y1="349.70" x2="546.11" y2="335.65"/>
<line x1="546.14" y1="331.63" x2="546.11" y2="317.58"/>
<line x1="546.14" y1="421.99" x2="546.11" y2="407.94"/>
<line x1="546.14" y1="403.92" x2="546.11" y2="389.87"/>
<line x1="334.2" y1="385.83" x2="334.19" y2="371.79"/>
<line x1="334.2" y1="367.76" x2="334.19" y2="353.72"/>
<line x1="334.2" y1="349.68" x2="334.19" y2="335.65"/>
<line x1="334.2" y1="331.61" x2="334.19" y2="317.58"/>
<line x1="334.2" y1="313.54" x2="334.19" y2="299.51"/>
<line x1="334.2" y1="421.97" x2="334.19" y2="407.94"/>
<line x1="334.2" y1="403.90" x2="334.19" y2="389.87"/>
<line x1="272.69" y1="444.05" x2="272.69" y2="430.04"/>
<line x1="546.14" y1="444.98" x2="546.14" y2="431.02"/>
<line x1="296.42" y1="277.26" x2="296.42" y2="263.34"/>
<line x1="296.42" y1="385.69" x2="296.42" y2="371.77"/>
<line x1="296.42" y1="367.62" x2="296.42" y2="353.70"/>
<line x1="334.2" y1="444.98" x2="334.2" y2="431.06"/>
<line x1="296.42" y1="403.76" x2="296.42" y2="389.84"/>
<line x1="296.42" y1="259.18" x2="296.42" y2="245.27"/>
<line x1="296.42" y1="421.83" x2="296.42" y2="407.92"/>
<line x1="296.42" y1="313.40" x2="296.42" y2="299.49"/>
<line x1="613.67" y1="421.83" x2="613.67" y2="407.92"/>
<line x1="296.42" y1="331.47" x2="296.42" y2="317.56"/>
<line x1="296.42" y1="349.54" x2="296.42" y2="335.63"/>
<line x1="613.67" y1="403.76" x2="613.67" y2="389.85"/>
<line x1="613.67" y1="331.47" x2="613.67" y2="317.56"/>
<line x1="613.67" y1="313.40" x2="613.67" y2="299.49"/>
<line x1="613.67" y1="223.04" x2="613.67" y2="209.13"/>
<line x1="296.42" y1="223.04" x2="296.42" y2="209.13"/>
<line x1="232.77" y1="211.36" x2="232.76" y2="225.26"/>
<line x1="613.67" y1="259.18" x2="613.67" y2="245.28"/>
<line x1="613.67" y1="367.61" x2="613.67" y2="353.71"/>
<line x1="613.67" y1="349.54" x2="613.67" y2="335.64"/>
<line x1="613.67" y1="385.68" x2="613.67" y2="371.78"/>
<line x1="652.72" y1="262.36" x2="652.72" y2="276.25"/>
<line x1="218.3" y1="211.47" x2="218.3" y2="225.33"/>
<line x1="224.09" y1="225.33" x2="224.09" y2="211.47"/>
<line x1="171.42" y1="225.33" x2="171.42" y2="211.47"/>
<line x1="200.35" y1="225.33" x2="200.35" y2="211.47"/>
<line x1="166.22" y1="225.33" x2="166.22" y2="211.47"/>
<line x1="209.62" y1="225.33" x2="209.62" y2="211.47"/>
<line x1="169.7" y1="211.47" x2="169.7" y2="225.33"/>
<line x1="203.84" y1="211.47" x2="203.84" y2="225.33"/>
<line x1="195.16" y1="225.33" x2="195.16" y2="211.47"/>
<line x1="185.89" y1="225.33" x2="185.89" y2="211.47"/>
<line x1="198.64" y1="211.47" x2="198.64" y2="225.33"/>
<line x1="180.69" y1="225.33" x2="180.69" y2="211.47"/>
<line x1="184.17" y1="211.47" x2="184.17" y2="225.33"/>
<line x1="349.03" y1="211.47" x2="349.03" y2="225.33"/>
<line x1="354.82" y1="211.47" x2="354.82" y2="225.33"/>
<line x1="339.99" y1="211.47" x2="339.99" y2="225.33"/>
<line x1="378.69" y1="225.33" x2="378.69" y2="211.47"/>
<line x1="393.52" y1="211.47" x2="393.52" y2="225.33"/>
<line x1="399.3" y1="225.33" x2="399.3" y2="211.47"/>
<line x1="369.65" y1="211.47" x2="369.65" y2="225.33"/>
<line x1="363.86" y1="211.47" x2="363.86" y2="225.33"/>
<line x1="488.27" y1="421.85" x2="488.27" y2="407.99"/>
<line x1="488.27" y1="259.20" x2="488.27" y2="245.34"/>
<line x1="488.27" y1="349.56" x2="488.27" y2="335.70"/>
<line x1="362.6" y1="211.47" x2="362.6" y2="225.33"/>
<line x1="356.87" y1="225.33" x2="356.87" y2="211.47"/>
<line x1="488.27" y1="331.49" x2="488.27" y2="317.63"/>
<line x1="488.27" y1="223.05" x2="488.27" y2="209.20"/>
<line x1="488.27" y1="367.63" x2="488.27" y2="353.78"/>
<line x1="488.27" y1="403.77" x2="488.27" y2="389.92"/>
<line x1="488.27" y1="385.70" x2="488.27" y2="371.85"/>
<line x1="488.27" y1="313.41" x2="488.27" y2="299.56"/>
<line x1="423.17" y1="299.55" x2="423.17" y2="313.38"/>
<line x1="423.17" y1="353.76" x2="423.17" y2="367.59"/>
<line x1="423.17" y1="407.98" x2="423.17" y2="421.81"/>
<line x1="423.17" y1="209.19" x2="423.17" y2="223.02"/>
<line x1="423.17" y1="245.33" x2="423.17" y2="259.16"/>
<line x1="423.17" y1="317.62" x2="423.17" y2="331.45"/>
<line x1="423.17" y1="335.69" x2="423.17" y2="349.52"/>
<line x1="423.17" y1="389.91" x2="423.17" y2="403.73"/>
<line x1="423.17" y1="371.84" x2="423.17" y2="385.66"/>
<line x1="721.08" y1="367.58" x2="721.07" y2="353.80"/>
<line x1="721.08" y1="421.79" x2="721.07" y2="408.02"/>
<line x1="721.08" y1="403.72" x2="721.07" y2="389.95"/>
<line x1="721.08" y1="349.50" x2="721.07" y2="335.73"/>
<line x1="721.08" y1="223.00" x2="721.07" y2="209.23"/>
<line x1="721.08" y1="259.14" x2="721.07" y2="245.37"/>
<line x1="721.08" y1="385.65" x2="721.07" y2="371.88"/>
<line x1="721.08" y1="331.43" x2="721.07" y2="317.66"/>
<line x1="253.02" y1="444.05" x2="253.02" y2="430.31"/>
<line x1="229.29" y1="277.20" x2="229.29" y2="263.47"/>
<line x1="229.29" y1="385.63" x2="229.29" y2="371.90"/>
<line x1="229.29" y1="313.34" x2="229.29" y2="299.61"/>
<line x1="229.29" y1="367.56" x2="229.29" y2="353.83"/>
<line x1="229.29" y1="331.41" x2="229.29" y2="317.68"/>
<line x1="229.29" y1="421.77" x2="229.29" y2="408.04"/>
<line x1="229.29" y1="403.70" x2="229.29" y2="389.97"/>
<line x1="229.29" y1="349.49" x2="229.29" y2="335.76"/>
<line x1="151.76" y1="444.05" x2="151.76" y2="430.35"/>
<line x1="488.27" y1="444.98" x2="488.27" y2="431.28"/>
<line x1="270.97" y1="209.29" x2="270.97" y2="222.90"/>
<line x1="270.97" y1="390.01" x2="270.97" y2="403.62"/>
<line x1="270.97" y1="299.65" x2="270.97" y2="313.26"/>
<line x1="270.97" y1="263.51" x2="270.97" y2="277.11"/>
<line x1="270.97" y1="408.09" x2="270.97" y2="421.69"/>
<line x1="270.97" y1="317.73" x2="270.97" y2="331.33"/>
<line x1="270.97" y1="335.80" x2="270.97" y2="349.40"/>
<line x1="270.97" y1="371.94" x2="270.97" y2="385.54"/>
<line x1="270.97" y1="353.87" x2="270.97" y2="367.47"/>
<line x1="270.97" y1="245.44" x2="270.97" y2="259.04"/>
<line x1="189.37" y1="353.91" x2="189.37" y2="367.50"/>
<line x1="189.37" y1="371.98" x2="189.37" y2="385.57"/>
<line x1="408.34" y1="408.09" x2="408.34" y2="421.68"/>
<line x1="189.37" y1="263.55" x2="189.37" y2="277.14"/>
<line x1="189.37" y1="299.70" x2="189.37" y2="313.28"/>
<line x1="189.37" y1="317.77" x2="189.37" y2="331.35"/>
<line x1="408.34" y1="317.74" x2="408.34" y2="331.32"/>
<line x1="408.34" y1="390.02" x2="408.34" y2="403.60"/>
<line x1="408.34" y1="371.95" x2="408.34" y2="385.53"/>
<line x1="189.37" y1="408.13" x2="189.37" y2="421.71"/>
<line x1="189.37" y1="390.06" x2="189.37" y2="403.64"/>
<line x1="189.37" y1="335.84" x2="189.37" y2="349.42"/>
<line x1="408.34" y1="299.66" x2="408.34" y2="313.24"/>
<line x1="408.34" y1="335.81" x2="408.34" y2="349.39"/>
<line x1="408.34" y1="353.88" x2="408.34" y2="367.46"/>
<line x1="570.27" y1="259.05" x2="570.27" y2="245.49"/>
<line x1="570.27" y1="222.91" x2="570.27" y2="209.35"/>
<line x1="570.27" y1="385.56" x2="570.27" y2="372.00"/>
<line x1="570.27" y1="367.49" x2="570.27" y2="353.93"/>
<line x1="570.27" y1="349.41" x2="570.27" y2="335.85"/>
<line x1="570.27" y1="331.34" x2="570.27" y2="317.78"/>
<line x1="570.27" y1="403.63" x2="570.27" y2="390.07"/>
<line x1="735.91" y1="259.01" x2="735.91" y2="245.46"/>
<line x1="735.91" y1="421.66" x2="735.91" y2="408.11"/>
<line x1="735.91" y1="367.44" x2="735.91" y2="353.89"/>
<line x1="735.91" y1="349.37" x2="735.91" y2="335.82"/>
<line x1="735.91" y1="331.30" x2="735.91" y2="317.75"/>
<line x1="735.91" y1="222.86" x2="735.91" y2="209.32"/>
<line x1="384.47" y1="353.90" x2="384.47" y2="367.44"/>
<line x1="384.47" y1="299.68" x2="384.47" y2="313.22"/>
<line x1="384.47" y1="408.11" x2="384.47" y2="421.65"/>
<line x1="384.47" y1="390.04" x2="384.47" y2="403.58"/>
<line x1="735.91" y1="403.58" x2="735.91" y2="390.04"/>
<line x1="735.91" y1="385.51" x2="735.91" y2="371.97"/>
<line x1="384.47" y1="335.82" x2="384.47" y2="349.36"/>
<line x1="384.47" y1="371.97" x2="384.47" y2="385.51"/>
<line x1="384.47" y1="317.75" x2="384.47" y2="331.29"/>
<line x1="801.0" y1="421.69" x2="801.01" y2="408.16"/>
<line x1="801.0" y1="403.62" x2="801.01" y2="390.09"/>
<line x1="801.0" y1="367.47" x2="801.01" y2="353.94"/>
<line x1="801.0" y1="331.33" x2="801.01" y2="317.80"/>
<line x1="801.0" y1="313.26" x2="801.01" y2="299.73"/>
<line x1="801.0" y1="222.90" x2="801.01" y2="209.37"/>
<line x1="801.0" y1="259.04" x2="801.01" y2="245.51"/>
<line x1="801.0" y1="349.40" x2="801.01" y2="335.87"/>
<line x1="801.0" y1="385.54" x2="801.01" y2="372.02"/>
<line x1="213.1" y1="430.59" x2="213.1" y2="444.05"/>
<line x1="174.9" y1="372.04" x2="174.9" y2="385.50"/>
<line x1="310.33" y1="245.54" x2="310.33" y2="258.99"/>
<line x1="310.33" y1="335.90" x2="310.33" y2="349.35"/>
<line x1="174.9" y1="317.83" x2="174.9" y2="331.28"/>
<line x1="174.9" y1="335.90" x2="174.9" y2="349.35"/>
<line x1="310.33" y1="317.83" x2="310.33" y2="331.28"/>
<line x1="174.9" y1="263.61" x2="174.9" y2="277.06"/>
<line x1="310.33" y1="209.40" x2="310.33" y2="222.85"/>
<line x1="174.9" y1="299.76" x2="174.9" y2="313.21"/>
<line x1="174.9" y1="390.12" x2="174.9" y2="403.57"/>
<line x1="174.9" y1="408.19" x2="174.9" y2="421.64"/>
<line x1="310.33" y1="408.19" x2="310.33" y2="421.64"/>
<line x1="310.33" y1="353.97" x2="310.33" y2="367.42"/>
<line x1="310.33" y1="390.12" x2="310.33" y2="403.57"/>
<line x1="310.33" y1="372.04" x2="310.33" y2="385.49"/>
<line x1="174.9" y1="353.97" x2="174.9" y2="367.42"/>
<line x1="310.33" y1="299.76" x2="310.33" y2="313.21"/>
<line x1="214.82" y1="313.16" x2="214.82" y2="299.77"/>
<line x1="214.82" y1="421.60" x2="214.82" y2="408.21"/>
<line x1="214.82" y1="349.31" x2="214.82" y2="335.92"/>
<line x1="214.82" y1="367.38" x2="214.82" y2="353.99"/>
<line x1="214.82" y1="277.02" x2="214.82" y2="263.63"/>
<line x1="214.82" y1="385.45" x2="214.82" y2="372.06"/>
<line x1="214.82" y1="403.52" x2="214.82" y2="390.13"/>
<line x1="214.82" y1="331.24" x2="214.82" y2="317.85"/>
<line x1="867.73" y1="249.55" x2="867.73" y2="262.92"/>
<line x1="851.25" y1="249.28" x2="851.25" y2="262.65"/>
<line x1="867.23" y1="249.37" x2="867.23" y2="262.74"/>
<line x1="867.04" y1="249.33" x2="867.04" y2="262.70"/>
<line x1="851.0" y1="249.30" x2="851.0" y2="262.67"/>
<line x1="849.97" y1="249.59" x2="849.97" y2="262.96"/>
<line x1="866.83" y1="249.30" x2="866.83" y2="262.67"/>
<line x1="866.62" y1="249.28" x2="866.62" y2="262.65"/>
<line x1="850.14" y1="249.51" x2="850.14" y2="262.88"/>
<line x1="849.72" y1="249.77" x2="849.72" y2="263.14"/>
<line x1="850.54" y1="249.38" x2="850.54" y2="262.75"/>
<line x1="850.33" y1="249.44" x2="850.33" y2="262.81"/>
<line x1="849.64" y1="249.87" x2="849.64" y2="263.24"/>
<line x1="80.73" y1="195.57" x2="80.73" y2="208.94"/>
<line x1="867.58" y1="249.48" x2="867.58" y2="262.85"/>
<line x1="867.42" y1="249.42" x2="867.42" y2="262.79"/>
<line x1="850.76" y1="249.34" x2="850.76" y2="262.70"/>
<line x1="867.85" y1="249.63" x2="867.85" y2="262.99"/>
<line x1="80.85" y1="195.50" x2="80.85" y2="208.86"/>
<line x1="81.34" y1="195.32" x2="81.34" y2="208.68"/>
<line x1="81.54" y1="195.28" x2="81.54" y2="208.64"/>
<line x1="81.16" y1="195.37" x2="81.16" y2="208.73"/>
<line x1="81.75" y1="195.25" x2="81.75" y2="208.61"/>
<line x1="849.83" y1="249.68" x2="849.83" y2="263.04"/>
<line x1="81.0" y1="195.43" x2="81.0" y2="208.79"/>
<line x1="81.96" y1="195.23" x2="81.96" y2="208.59"/>
<line x1="227.57" y1="211.47" x2="227.57" y2="224.79"/>
<line x1="849.57" y1="250.08" x2="849.59" y2="263.34"/>
<line x1="637.9" y1="263.02" x2="637.9" y2="276.25"/>
<line x1="408.34" y1="431.75" x2="408.34" y2="444.98"/>
<line x1="735.91" y1="444.98" x2="735.91" y2="431.82"/>
<line x1="384.47" y1="431.83" x2="384.47" y2="444.98"/>
<line x1="613.67" y1="276.25" x2="613.67" y2="263.35"/>
<line x1="334.2" y1="276.25" x2="334.19" y2="263.36"/>
<line x1="423.17" y1="263.40" x2="423.17" y2="276.25"/>
<line x1="408.34" y1="263.52" x2="408.34" y2="276.25"/>
<line x1="384.47" y1="263.54" x2="384.47" y2="276.25"/>
<line x1="501.14" y1="81.15" x2="513.84" y2="81.15"/>
<line x1="430.66" y1="81.15" x2="443.36" y2="81.15"/>
<line x1="801.0" y1="276.25" x2="801.01" y2="263.58"/>
<line x1="111.61" y1="456.71" x2="111.61" y2="444.05"/>
<line x1="310.33" y1="263.61" x2="310.33" y2="276.25"/>
<line x1="310.33" y1="432.53" x2="310.33" y2="444.98"/>
<line x1="860.32" y1="291.23" x2="847.97" y2="291.23"/>
<line x1="270.97" y1="431.71" x2="270.97" y2="444.05"/>
<line x1="801.0" y1="444.98" x2="801.0" y2="432.76"/>
<line x1="860.32" y1="249.28" x2="860.32" y2="237.18"/>
<line x1="213.1" y1="211.47" x2="213.1" y2="223.49"/>
<line x1="151.76" y1="220.55" x2="151.76" y2="208.59"/>
<line x1="334.2" y1="223.18" x2="334.2" y2="211.22"/>
<line x1="232.77" y1="249.58" x2="232.76" y2="261.40"/>
<line x1="214.82" y1="444.05" x2="214.82" y2="432.26"/>
<line x1="859.76" y1="204.31" x2="847.97" y2="204.31"/>
<line x1="721.08" y1="444.98" x2="721.08" y2="433.23"/>
<line x1="301.84" y1="456.71" x2="301.84" y2="444.98"/>
<line x1="423.17" y1="433.30" x2="423.17" y2="444.98"/>
<line x1="613.67" y1="444.98" x2="613.67" y2="433.40"/>
<line x1="229.29" y1="222.98" x2="229.29" y2="211.47"/>
<line x1="174.9" y1="432.54" x2="174.9" y2="444.05"/>
<line x1="88.13" y1="237.18" x2="99.61" y2="237.18"/>
<line x1="189.37" y1="211.47" x2="189.37" y2="222.92"/>
<line x1="384.47" y1="211.47" x2="384.47" y2="222.86"/>
<line x1="174.9" y1="211.47" x2="174.9" y2="222.85"/>
<line x1="462.63" y1="78.49" x2="472.42" y2="72.73"/>
<line x1="214.82" y1="222.80" x2="214.82" y2="211.47"/>
<line x1="530.95" y1="444.98" x2="530.95" y2="433.68"/>
<line x1="227.57" y1="249.69" x2="227.57" y2="260.94"/>
<line x1="503.1" y1="433.77" x2="503.1" y2="444.98"/>
<line x1="488.27" y1="274.61" x2="488.27" y2="263.42"/>
<line x1="189.37" y1="432.87" x2="189.37" y2="444.05"/>
<line x1="462.63" y1="78.73" x2="472.19" y2="73.12"/>
<line x1="570.27" y1="276.25" x2="570.27" y2="265.22"/>
<line x1="882.89" y1="224.28" x2="882.89" y2="235.23"/>
<line x1="65.68" y1="278.33" x2="65.68" y2="289.28"/>
<line x1="229.29" y1="444.05" x2="229.29" y2="433.15"/>
<line x1="501.13" y1="81.15" x2="500.9" y2="70.26"/>
<line x1="691.42" y1="265.40" x2="691.42" y2="276.25"/>
<line x1="748.05" y1="276.25" x2="748.06" y2="265.52"/>
<line x1="557.32" y1="265.52" x2="557.33" y2="276.25"/>
<line x1="557.05" y1="265.52" x2="557.06" y2="276.25"/>
<line x1="706.25" y1="265.52" x2="706.25" y2="276.25"/>
<line x1="756.52" y1="276.25" x2="756.52" y2="265.52"/>
<line x1="750.73" y1="265.52" x2="750.73" y2="276.25"/>
<line x1="741.69" y1="265.52" x2="741.69" y2="276.25"/>
<line x1="735.91" y1="276.25" x2="735.91" y2="265.52"/>
<line x1="697.21" y1="276.25" x2="697.21" y2="265.52"/>
<line x1="726.86" y1="265.52" x2="726.86" y2="276.25"/>
<line x1="721.08" y1="276.25" x2="721.08" y2="265.52"/>
<line x1="712.04" y1="265.52" x2="712.04" y2="276.25"/>
<line x1="540.35" y1="265.52" x2="540.35" y2="276.25"/>
<line x1="530.95" y1="276.25" x2="530.95" y2="265.52"/>
<line x1="536.73" y1="265.52" x2="536.73" y2="276.25"/>
<line x1="512.14" y1="265.52" x2="512.14" y2="276.25"/>
<line x1="527.33" y1="265.52" x2="527.33" y2="276.25"/>
<line x1="521.54" y1="276.25" x2="521.54" y2="265.52"/>
<line x1="503.1" y1="265.52" x2="503.1" y2="276.25"/>
<line x1="517.93" y1="276.25" x2="517.93" y2="265.52"/>
<line x1="748.13" y1="265.52" x2="748.13" y2="276.25"/>
<line x1="747.65" y1="265.52" x2="747.65" y2="276.25"/>
<line x1="747.84" y1="265.52" x2="747.84" y2="276.25"/>
<line x1="747.76" y1="276.25" x2="747.76" y2="265.52"/>
<line x1="747.92" y1="265.52" x2="747.92" y2="276.25"/>
<line x1="747.96" y1="276.25" x2="747.96" y2="265.52"/>
<line x1="557.41" y1="265.52" x2="557.41" y2="276.25"/>
<line x1="557.49" y1="265.52" x2="557.49" y2="276.25"/>
<line x1="557.2" y1="276.25" x2="557.2" y2="265.52"/>
<line x1="557.25" y1="265.52" x2="557.25" y2="276.25"/>
<line x1="557.17" y1="276.25" x2="557.17" y2="265.52"/>
<line x1="557.09" y1="276.25" x2="557.09" y2="265.52"/>
<line x1="557.53" y1="276.25" x2="557.53" y2="265.52"/>
<line x1="546.14" y1="276.25" x2="546.14" y2="265.52"/>
<line x1="549.75" y1="265.52" x2="549.75" y2="276.25"/>
<line x1="559.15" y1="265.52" x2="559.15" y2="276.25"/>
<line x1="564.94" y1="276.25" x2="564.94" y2="265.52"/>
<line x1="555.54" y1="265.52" x2="555.54" y2="276.25"/>
<line x1="296.42" y1="444.05" x2="296.42" y2="433.41"/>
<line x1="443.6" y1="70.56" x2="444.21" y2="81.15"/>
<line x1="527.33" y1="303.74" x2="527.33" y2="314.34"/>
<line x1="227.59" y1="424.33" x2="227.57" y2="434.82"/>
<line x1="652.72" y1="434.51" x2="652.72" y2="444.98"/>
<line x1="471.0" y1="72.27" x2="462.63" y2="78.49"/>
<line x1="256.5" y1="433.69" x2="256.5" y2="444.05"/>
<line x1="99.61" y1="235.04" x2="109.95" y2="235.04"/>
<line x1="99.61" y1="224.36" x2="109.95" y2="224.36"/>
<line x1="697.21" y1="314.08" x2="697.21" y2="303.74"/>
<line x1="682.38" y1="434.70" x2="682.38" y2="444.98"/>
<line x1="232.77" y1="287.43" x2="232.76" y2="297.55"/>
<line x1="682.38" y1="424.61" x2="682.38" y2="434.70"/>
<line x1="477.26" y1="97.27" x2="467.25" y2="97.27"/>
<line x1="232.77" y1="233.37" x2="232.76" y2="243.33"/>
<line x1="213.1" y1="249.69" x2="213.1" y2="259.64"/>
<line x1="334.2" y1="259.32" x2="334.2" y2="249.44"/>
<line x1="570.27" y1="313.27" x2="570.27" y2="303.43"/>
<line x1="503.1" y1="303.74" x2="503.1" y2="313.57"/>
<line x1="546.14" y1="313.56" x2="546.14" y2="303.74"/>
<line x1="860.32" y1="272.43" x2="860.32" y2="262.65"/>
<line x1="88.13" y1="218.37" x2="88.13" y2="208.59"/>
<line x1="530.95" y1="313.51" x2="530.95" y2="303.74"/>
<line x1="459.18" y1="97.02" x2="449.43" y2="96.43"/>
<line x1="227.57" y1="287.43" x2="227.57" y2="297.08"/>
<line x1="449.43" y1="96.43" x2="439.84" y2="95.37"/>
<line x1="721.08" y1="313.36" x2="721.08" y2="303.74"/>
<line x1="497.31" y1="292.68" x2="497.31" y2="302.24"/>
<line x1="652.72" y1="425.00" x2="652.72" y2="434.51"/>
<line x1="227.57" y1="233.37" x2="227.57" y2="242.87"/>
<line x1="735.91" y1="313.22" x2="735.91" y2="303.74"/>
<line x1="408.34" y1="249.55" x2="408.34" y2="259.03"/>
<line x1="847.97" y1="289.09" x2="838.5" y2="289.09"/>
<line x1="847.97" y1="224.36" x2="838.5" y2="224.36"/>
<line x1="847.97" y1="235.04" x2="838.5" y2="235.04"/>
<line x1="847.97" y1="278.42" x2="838.5" y2="278.42"/>
<line x1="847.97" y1="204.22" x2="838.5" y2="204.22"/>
<line x1="847.97" y1="204.31" x2="838.5" y2="204.31"/>
<line x1="229.29" y1="259.13" x2="229.29" y2="249.69"/>
<line x1="617.28" y1="296.86" x2="617.28" y2="287.43"/>
<line x1="189.37" y1="249.69" x2="189.37" y2="259.06"/>
<line x1="384.47" y1="249.69" x2="384.47" y2="259.01"/>
<line x1="174.9" y1="249.69" x2="174.9" y2="258.99"/>
<line x1="617.28" y1="242.65" x2="617.28" y2="233.37"/>
<line x1="214.82" y1="258.95" x2="214.82" y2="249.69"/>
<line x1="160.44" y1="247.86" x2="160.44" y2="238.62"/>
<line x1="227.57" y1="434.82" x2="227.57" y2="444.05"/>
<line x1="97.33" y1="208.59" x2="88.13" y2="208.59"/>
<line x1="682.38" y1="287.43" x2="682.38" y2="296.62"/>
<line x1="859.76" y1="204.22" x2="850.58" y2="204.23"/>
<line x1="859.76" y1="203.55" x2="850.58" y2="203.55"/>
<line x1="88.13" y1="291.23" x2="97.26" y2="291.23"/>
<line x1="88.13" y1="276.28" x2="97.26" y2="276.28"/>
<line x1="497.31" y1="265.52" x2="497.31" y2="274.61"/>
<line x1="851.25" y1="262.65" x2="860.32" y2="262.65"/>
<line x1="452.83" y1="435.91" x2="452.83" y2="444.98"/>
<line x1="310.33" y1="446.95" x2="319.38" y2="446.95"/>
<line x1="458.61" y1="446.95" x2="467.66" y2="446.95"/>
<line x1="310.33" y1="452.73" x2="319.38" y2="452.73"/>
<line x1="458.61" y1="452.73" x2="467.66" y2="452.73"/>
<line x1="310.33" y1="276.25" x2="319.38" y2="276.25"/>
<line x1="458.61" y1="276.25" x2="467.66" y2="276.25"/>
<line x1="310.33" y1="444.98" x2="319.38" y2="444.98"/>
<line x1="458.61" y1="444.98" x2="467.66" y2="444.98"/>
<line x1="319.38" y1="204.22" x2="310.33" y2="204.22"/>
<line x1="319.38" y1="204.31" x2="310.33" y2="204.31"/>
<line x1="467.66" y1="204.22" x2="458.61" y2="204.22"/>
<line x1="467.66" y1="204.31" x2="458.61" y2="204.31"/>
<line x1="810.05" y1="446.95" x2="801.0" y2="446.95"/>
<line x1="661.77" y1="446.95" x2="652.72" y2="446.95"/>
<line x1="810.05" y1="452.73" x2="801.0" y2="452.73"/>
<line x1="661.77" y1="452.73" x2="652.72" y2="452.73"/>
<line x1="810.05" y1="276.25" x2="801.0" y2="276.25"/>
<line x1="661.77" y1="276.25" x2="652.72" y2="276.25"/>
<line x1="652.72" y1="444.98" x2="661.77" y2="444.98"/>
<line x1="801.0" y1="444.98" x2="810.05" y2="444.98"/>
<line x1="735.91" y1="446.95" x2="726.86" y2="446.95"/>
<line x1="735.91" y1="452.73" x2="726.86" y2="452.73"/>
<line x1="735.91" y1="276.25" x2="726.86" y2="276.25"/>
<line x1="384.47" y1="446.95" x2="393.52" y2="446.95"/>
<line x1="384.47" y1="452.73" x2="393.52" y2="452.73"/>
<line x1="384.47" y1="276.25" x2="393.52" y2="276.25"/>
<line x1="384.47" y1="444.98" x2="393.52" y2="444.98"/>
<line x1="726.86" y1="444.98" x2="735.91" y2="444.98"/>
<line x1="735.91" y1="264.04" x2="726.86" y2="264.04"/>
<line x1="735.91" y1="265.52" x2="726.86" y2="265.52"/>
<line x1="735.91" y1="303.74" x2="726.86" y2="303.74"/>
<line x1="735.91" y1="302.25" x2="726.86" y2="302.25"/>
<line x1="393.52" y1="248.20" x2="384.47" y2="248.20"/>
<line x1="393.52" y1="209.99" x2="384.47" y2="209.99"/>
<line x1="393.52" y1="211.47" x2="384.47" y2="211.47"/>
<line x1="393.52" y1="249.69" x2="384.47" y2="249.69"/>
<line x1="393.52" y1="204.22" x2="384.47" y2="204.22"/>
<line x1="393.52" y1="204.31" x2="384.47" y2="204.31"/>
<line x1="810.05" y1="204.22" x2="801.0" y2="204.22"/>
<line x1="661.77" y1="204.22" x2="652.72" y2="204.22"/>
<line x1="735.91" y1="204.22" x2="726.86" y2="204.22"/>
<line x1="661.77" y1="204.31" x2="652.72" y2="204.31"/>
<line x1="735.91" y1="204.31" x2="726.86" y2="204.31"/>
<line x1="810.05" y1="204.31" x2="801.0" y2="204.31"/>
<line x1="795.22" y1="446.95" x2="786.18" y2="446.95"/>
<line x1="676.59" y1="446.95" x2="667.55" y2="446.95"/>
<line x1="646.94" y1="446.95" x2="637.9" y2="446.95"/>
<line x1="795.22" y1="452.73" x2="786.18" y2="452.73"/>
<line x1="676.59" y1="452.73" x2="667.55" y2="452.73"/>
<line x1="646.94" y1="452.73" x2="637.9" y2="452.73"/>
<line x1="646.94" y1="276.25" x2="637.9" y2="276.25"/>
<line x1="637.9" y1="444.98" x2="646.94" y2="444.98"/>
<line x1="667.55" y1="444.98" x2="676.59" y2="444.98"/>
<line x1="786.18" y1="444.98" x2="795.22" y2="444.98"/>
<line x1="721.08" y1="446.95" x2="712.04" y2="446.95"/>
<line x1="721.08" y1="452.73" x2="712.04" y2="452.73"/>
<line x1="721.08" y1="276.25" x2="712.04" y2="276.25"/>
<line x1="712.04" y1="444.98" x2="721.08" y2="444.98"/>
<line x1="721.08" y1="303.74" x2="712.04" y2="303.74"/>
<line x1="721.08" y1="265.52" x2="712.04" y2="265.52"/>
<line x1="721.08" y1="302.25" x2="712.04" y2="302.25"/>
<line x1="721.08" y1="264.04" x2="712.04" y2="264.04"/>
<line x1="646.94" y1="204.22" x2="637.9" y2="204.22"/>
<line x1="721.08" y1="204.22" x2="712.04" y2="204.22"/>
<line x1="646.94" y1="204.31" x2="637.9" y2="204.31"/>
<line x1="721.08" y1="204.31" x2="712.04" y2="204.31"/>
<line x1="428.96" y1="446.95" x2="438.0" y2="446.95"/>
<line x1="428.96" y1="452.73" x2="438.0" y2="452.73"/>
<line x1="428.96" y1="444.98" x2="438.0" y2="444.98"/>
<line x1="354.82" y1="446.95" x2="363.86" y2="446.95"/>
<line x1="369.65" y1="446.95" x2="378.69" y2="446.95"/>
<line x1="414.13" y1="446.95" x2="423.17" y2="446.95"/>
<line x1="473.44" y1="446.95" x2="482.48" y2="446.95"/>
<line x1="488.27" y1="446.95" x2="497.31" y2="446.95"/>
<line x1="354.82" y1="452.73" x2="363.86" y2="452.73"/>
<line x1="369.65" y1="452.73" x2="378.69" y2="452.73"/>
<line x1="414.13" y1="452.73" x2="423.17" y2="452.73"/>
<line x1="473.44" y1="452.73" x2="482.48" y2="452.73"/>
<line x1="488.27" y1="452.73" x2="497.31" y2="452.73"/>
<line x1="369.65" y1="276.25" x2="378.69" y2="276.25"/>
<line x1="414.13" y1="276.25" x2="423.17" y2="276.25"/>
<line x1="354.82" y1="444.98" x2="363.86" y2="444.98"/>
<line x1="369.65" y1="444.98" x2="378.69" y2="444.98"/>
<line x1="414.13" y1="444.98" x2="423.17" y2="444.98"/>
<line x1="473.44" y1="444.98" x2="482.48" y2="444.98"/>
<line x1="488.27" y1="444.98" x2="497.31" y2="444.98"/>
<line x1="378.69" y1="248.20" x2="369.65" y2="248.20"/>
<line x1="378.69" y1="209.99" x2="369.65" y2="209.99"/>
<line x1="378.69" y1="211.47" x2="369.65" y2="211.47"/>
<line x1="378.69" y1="249.69" x2="369.65" y2="249.69"/>
<line x1="378.69" y1="204.22" x2="369.65" y2="204.22"/>
<line x1="423.17" y1="204.22" x2="414.13" y2="204.22"/>
<line x1="378.69" y1="204.31" x2="369.65" y2="204.31"/>
<line x1="423.17" y1="204.31" x2="414.13" y2="204.31"/>
<line x1="497.31" y1="204.22" x2="488.27" y2="204.22"/>
<line x1="497.31" y1="204.31" x2="488.27" y2="204.31"/>
<line x1="824.87" y1="446.95" x2="815.83" y2="446.95"/>
<line x1="706.25" y1="446.95" x2="697.21" y2="446.95"/>
<line x1="691.42" y1="446.95" x2="682.38" y2="446.95"/>
<line x1="824.87" y1="452.73" x2="815.83" y2="452.73"/>
<line x1="706.25" y1="452.73" x2="697.21" y2="452.73"/>
<line x1="691.42" y1="452.73" x2="682.38" y2="452.73"/>
<line x1="706.25" y1="276.25" x2="697.21" y2="276.25"/>
<line x1="691.42" y1="276.25" x2="682.38" y2="276.25"/>
<line x1="325.16" y1="446.95" x2="334.2" y2="446.95"/>
<line x1="339.99" y1="446.95" x2="349.03" y2="446.95"/>
<line x1="443.79" y1="446.95" x2="452.83" y2="446.95"/>
<line x1="325.16" y1="452.73" x2="334.2" y2="452.73"/>
<line x1="339.99" y1="452.73" x2="349.03" y2="452.73"/>
<line x1="443.79" y1="452.73" x2="452.83" y2="452.73"/>
<line x1="325.16" y1="276.25" x2="334.2" y2="276.25"/>
<line x1="339.99" y1="276.25" x2="349.03" y2="276.25"/>
<line x1="443.79" y1="276.25" x2="452.83" y2="276.25"/>
<line x1="325.16" y1="444.98" x2="334.2" y2="444.98"/>
<line x1="339.99" y1="444.98" x2="349.03" y2="444.98"/>
<line x1="443.79" y1="444.98" x2="452.83" y2="444.98"/>
<line x1="682.38" y1="444.98" x2="691.42" y2="444.98"/>
<line x1="697.21" y1="444.98" x2="706.25" y2="444.98"/>
<line x1="780.39" y1="446.95" x2="771.35" y2="446.95"/>
<line x1="765.56" y1="446.95" x2="756.52" y2="446.95"/>
<line x1="750.73" y1="446.95" x2="741.69" y2="446.95"/>
<line x1="632.11" y1="446.95" x2="623.07" y2="446.95"/>
<line x1="780.39" y1="452.73" x2="771.35" y2="452.73"/>
<line x1="765.56" y1="452.73" x2="756.52" y2="452.73"/>
<line x1="750.73" y1="452.73" x2="741.69" y2="452.73"/>
<line x1="632.11" y1="452.73" x2="623.07" y2="452.73"/>
<line x1="399.3" y1="446.95" x2="408.34" y2="446.95"/>
<line x1="503.1" y1="446.95" x2="512.14" y2="446.95"/>
<line x1="399.3" y1="452.73" x2="408.34" y2="452.73"/>
<line x1="503.1" y1="452.73" x2="512.14" y2="452.73"/>
<line x1="399.3" y1="276.25" x2="408.34" y2="276.25"/>
<line x1="503.1" y1="276.25" x2="512.14" y2="276.25"/>
<line x1="399.3" y1="444.98" x2="408.34" y2="444.98"/>
<line x1="503.1" y1="444.98" x2="512.14" y2="444.98"/>
<line x1="623.07" y1="444.98" x2="632.11" y2="444.98"/>
<line x1="741.69" y1="444.98" x2="750.73" y2="444.98"/>
<line x1="756.52" y1="444.98" x2="765.56" y2="444.98"/>
<line x1="771.35" y1="444.98" x2="780.39" y2="444.98"/>
<line x1="503.1" y1="265.52" x2="512.14" y2="265.52"/>
<line x1="706.25" y1="302.25" x2="697.21" y2="302.25"/>
<line x1="706.25" y1="265.52" x2="697.21" y2="265.52"/>
<line x1="706.25" y1="264.03" x2="697.21" y2="264.03"/>
<line x1="349.03" y1="248.20" x2="339.99" y2="248.20"/>
<line x1="349.03" y1="211.47" x2="339.99" y2="211.47"/>
<line x1="349.03" y1="209.98" x2="339.99" y2="209.98"/>
<line x1="706.25" y1="303.74" x2="697.21" y2="303.74"/>
<line x1="349.03" y1="249.69" x2="339.99" y2="249.69"/>
<line x1="503.1" y1="303.74" x2="512.14" y2="303.74"/>
<line x1="503.1" y1="264.04" x2="512.14" y2="264.04"/>
<line x1="503.1" y1="302.25" x2="512.14" y2="302.25"/>
<line x1="334.2" y1="204.22" x2="325.16" y2="204.22"/>
<line x1="349.03" y1="204.22" x2="339.99" y2="204.22"/>
<line x1="408.34" y1="204.22" x2="399.3" y2="204.22"/>
<line x1="334.2" y1="204.31" x2="325.16" y2="204.31"/>
<line x1="349.03" y1="204.31" x2="339.99" y2="204.31"/>
<line x1="452.83" y1="204.22" x2="443.79" y2="204.22"/>
<line x1="408.34" y1="204.31" x2="399.3" y2="204.31"/>
<line x1="765.56" y1="204.22" x2="756.52" y2="204.22"/>
<line x1="780.39" y1="204.22" x2="771.35" y2="204.22"/>
<line x1="452.83" y1="204.31" x2="443.79" y2="204.31"/>
<line x1="691.42" y1="204.22" x2="682.38" y2="204.22"/>
<line x1="706.25" y1="204.22" x2="697.21" y2="204.22"/>
<line x1="512.14" y1="204.22" x2="503.1" y2="204.22"/>
<line x1="512.14" y1="204.31" x2="503.1" y2="204.31"/>
<line x1="691.42" y1="204.31" x2="682.38" y2="204.31"/>
<line x1="706.25" y1="204.31" x2="697.21" y2="204.31"/>
<line x1="765.56" y1="204.31" x2="756.52" y2="204.31"/>
<line x1="780.39" y1="204.31" x2="771.35" y2="204.31"/>
<line x1="682.38" y1="233.37" x2="682.38" y2="242.40"/>
<line x1="272.69" y1="296.46" x2="272.69" y2="287.43"/>
<line x1="860.32" y1="237.18" x2="851.32" y2="237.18"/>
<line x1="860.32" y1="222.23" x2="851.32" y2="222.23"/>
<line x1="691.42" y1="435.98" x2="691.42" y2="444.98"/>
<line x1="80.7" y1="217.89" x2="80.73" y2="208.94"/>
<line x1="267.51" y1="444.05" x2="267.49" y2="435.10"/>
<line x1="97.05" y1="218.37" x2="88.13" y2="218.37"/>
<line x1="272.69" y1="242.25" x2="272.69" y2="233.37"/>
<line x1="676.59" y1="276.25" x2="667.72" y2="276.25"/>
<line x1="676.59" y1="204.22" x2="667.73" y2="204.22"/>
<line x1="676.59" y1="204.31" x2="667.73" y2="204.31"/>
<line x1="527.33" y1="287.43" x2="527.33" y2="296.27"/>
<line x1="851.5" y1="249.28" x2="860.32" y2="249.28"/>
<line x1="652.72" y1="287.43" x2="652.72" y2="296.23"/>
<line x1="851.53" y1="272.43" x2="860.32" y2="272.43"/>
<line x1="160.44" y1="220.55" x2="160.44" y2="211.81"/>
<line x1="258.22" y1="444.05" x2="258.22" y2="435.36"/>
<line x1="527.33" y1="233.37" x2="527.33" y2="242.05"/>
<line x1="652.72" y1="233.37" x2="652.72" y2="242.01"/>
<line x1="408.34" y1="211.92" x2="408.34" y2="220.55"/>
<line x1="253.02" y1="296.06" x2="253.02" y2="287.43"/>
<line x1="151.76" y1="296.02" x2="151.76" y2="287.43"/>
<line x1="697.21" y1="296.01" x2="697.21" y2="287.43"/>
<line x1="771.35" y1="436.45" x2="771.35" y2="444.98"/>
<line x1="253.02" y1="241.84" x2="253.02" y2="233.37"/>
<line x1="362.6" y1="239.75" x2="362.6" y2="248.20"/>
<line x1="356.87" y1="248.20" x2="356.87" y2="239.75"/>
<line x1="697.21" y1="241.80" x2="697.21" y2="233.37"/>
<line x1="218.3" y1="435.64" x2="218.3" y2="444.05"/>
<line x1="109.95" y1="204.22" x2="101.55" y2="204.25"/>
<line x1="637.9" y1="287.43" x2="637.9" y2="295.83"/>
<line x1="431.66" y1="84.57" x2="431.66" y2="92.95"/>
<line x1="512.84" y1="84.57" x2="512.84" y2="92.95"/>
<line x1="109.95" y1="204.31" x2="101.58" y2="204.31"/>
<line x1="868.0" y1="271.80" x2="868.0" y2="280.16"/>
<line x1="213.1" y1="287.43" x2="213.1" y2="295.78"/>
<line x1="80.57" y1="217.75" x2="80.57" y2="226.10"/>
<line x1="540.35" y1="436.64" x2="540.35" y2="444.98"/>
<line x1="868.05" y1="271.69" x2="868.07" y2="280.00"/>
<line x1="80.52" y1="217.64" x2="80.51" y2="225.95"/>
<line x1="339.99" y1="436.68" x2="339.99" y2="444.98"/>
<line x1="98.99" y1="209.28" x2="99.0" y2="217.56"/>
<line x1="849.59" y1="263.34" x2="849.57" y2="271.61"/>
<line x1="741.33" y1="544.26" x2="733.06" y2="544.26"/>
<line x1="80.32" y1="272.91" x2="72.05" y2="272.91"/>
<line x1="355.51" y1="544.26" x2="347.24" y2="544.26"/>
<line x1="612.72" y1="544.26" x2="604.45" y2="544.26"/>
<line x1="226.9" y1="544.26" x2="218.64" y2="544.26"/>
<line x1="868.26" y1="326.96" x2="876.52" y2="326.96"/>
<line x1="369.65" y1="412.69" x2="369.65" y2="420.95"/>
<line x1="484.11" y1="544.26" x2="475.85" y2="544.26"/>
<line x1="867.92" y1="271.91" x2="867.92" y2="280.16"/>
<line x1="80.66" y1="217.85" x2="80.66" y2="226.10"/>
<line x1="637.9" y1="233.37" x2="637.9" y2="241.61"/>
<line x1="213.1" y1="233.37" x2="213.1" y2="241.57"/>
<line x1="867.8" y1="272.00" x2="867.8" y2="280.16"/>
<line x1="80.78" y1="217.95" x2="80.78" y2="226.10"/>
<line x1="815.83" y1="420.83" x2="815.83" y2="412.69"/>
<line x1="349.03" y1="412.69" x2="349.03" y2="420.80"/>
<line x1="503.1" y1="287.43" x2="503.1" y2="295.50"/>
<line x1="145.95" y1="435.99" x2="145.97" y2="444.05"/>
<line x1="867.65" y1="272.10" x2="867.65" y2="280.16"/>
<line x1="80.92" y1="218.04" x2="80.92" y2="226.10"/>
<line x1="585.46" y1="412.69" x2="585.46" y2="420.75"/>
<line x1="546.14" y1="295.49" x2="546.14" y2="287.43"/>
<line x1="765.56" y1="292.68" x2="765.56" y2="300.72"/>
<line x1="334.2" y1="295.47" x2="334.2" y2="287.43"/>
<line x1="530.95" y1="295.44" x2="530.95" y2="287.43"/>
<line x1="256.5" y1="287.43" x2="256.5" y2="295.44"/>
<path d="M 89.50 -0.00 A 9.19 9.19 0 0 0 80.31 9.19"/>
<path d="M 860.32 9.19 A 9.19 9.19 0 0 0 851.13 -0.00"/>
</svg>